<mxfile host="app.diagrams.net" modified="2020-09-15T15:01:59.715Z" agent="5.0 (Windows NT 10.0; Win64; x64) AppleWebKit/537.36 (KHTML, like Gecko) Chrome/85.0.4183.102 Safari/537.36" etag="X8mWSBUgpq-hOvr4dtOt" version="13.6.10" type="github" pages="9">
  <diagram id="yzNUyQcvRCuZJqu9L7W9" name="Overview ">
    <mxGraphModel dx="2871" dy="776" grid="0" gridSize="10" guides="1" tooltips="1" connect="1" arrows="1" fold="1" page="1" pageScale="1" pageWidth="827" pageHeight="1169" background="none" math="0" shadow="0">
      <root>
        <mxCell id="0" />
        <mxCell id="1" parent="0" />
        <mxCell id="c7nheeR4Cv1lEZ-zM7IP-1" style="edgeStyle=orthogonalEdgeStyle;rounded=0;orthogonalLoop=1;jettySize=auto;html=1;exitX=1;exitY=0.5;exitDx=0;exitDy=0;entryX=0;entryY=0.5;entryDx=0;entryDy=0;dashed=1;" parent="1" source="c7nheeR4Cv1lEZ-zM7IP-4" target="c7nheeR4Cv1lEZ-zM7IP-7" edge="1">
          <mxGeometry relative="1" as="geometry" />
        </mxCell>
        <mxCell id="2mvnybx2gDGMd5j6eMJd-31" style="edgeStyle=orthogonalEdgeStyle;rounded=0;orthogonalLoop=1;jettySize=auto;html=1;exitX=0.75;exitY=1;exitDx=0;exitDy=0;dashed=1;entryX=0.5;entryY=0;entryDx=0;entryDy=0;" parent="1" source="c7nheeR4Cv1lEZ-zM7IP-4" target="jtWPIGQ9lgPhIsARCJN1-1" edge="1">
          <mxGeometry relative="1" as="geometry">
            <Array as="points">
              <mxPoint x="153" y="370" />
              <mxPoint x="599" y="370" />
            </Array>
          </mxGeometry>
        </mxCell>
        <mxCell id="Q-ECmKFL7cBIkWH3QSio-10" style="edgeStyle=orthogonalEdgeStyle;rounded=0;orthogonalLoop=1;jettySize=auto;html=1;exitX=0.5;exitY=1;exitDx=0;exitDy=0;entryX=0;entryY=0.5;entryDx=0;entryDy=0;dashed=1;startArrow=none;startFill=0;strokeColor=#000000;" parent="1" source="c7nheeR4Cv1lEZ-zM7IP-4" target="c7nheeR4Cv1lEZ-zM7IP-52" edge="1">
          <mxGeometry relative="1" as="geometry" />
        </mxCell>
        <mxCell id="Q-ECmKFL7cBIkWH3QSio-11" style="edgeStyle=orthogonalEdgeStyle;rounded=0;orthogonalLoop=1;jettySize=auto;html=1;exitX=0.25;exitY=1;exitDx=0;exitDy=0;entryX=0;entryY=0.5;entryDx=0;entryDy=0;dashed=1;startArrow=none;startFill=0;strokeColor=#000000;" parent="1" source="c7nheeR4Cv1lEZ-zM7IP-4" target="c7nheeR4Cv1lEZ-zM7IP-35" edge="1">
          <mxGeometry relative="1" as="geometry" />
        </mxCell>
        <mxCell id="c7nheeR4Cv1lEZ-zM7IP-4" value="Homepage Visit" style="rounded=1;whiteSpace=wrap;html=1;fontSize=12;glass=0;strokeWidth=1;shadow=0;fillColor=#0050ef;strokeColor=#001DBC;fontColor=#ffffff;" parent="1" vertex="1">
          <mxGeometry x="-9" y="93" width="133" height="40" as="geometry" />
        </mxCell>
        <mxCell id="c7nheeR4Cv1lEZ-zM7IP-5" style="edgeStyle=orthogonalEdgeStyle;rounded=0;orthogonalLoop=1;jettySize=auto;html=1;exitX=0.5;exitY=1;exitDx=0;exitDy=0;entryX=0.5;entryY=0;entryDx=0;entryDy=0;fillColor=#dae8fc;strokeColor=#7EA6E0;" parent="1" source="c7nheeR4Cv1lEZ-zM7IP-7" target="c7nheeR4Cv1lEZ-zM7IP-22" edge="1">
          <mxGeometry relative="1" as="geometry" />
        </mxCell>
        <mxCell id="c7nheeR4Cv1lEZ-zM7IP-6" style="edgeStyle=orthogonalEdgeStyle;rounded=0;orthogonalLoop=1;jettySize=auto;html=1;exitX=0.5;exitY=1;exitDx=0;exitDy=0;entryX=0;entryY=0.5;entryDx=0;entryDy=0;fontSize=30;strokeColor=#7EA6E0;" parent="1" source="c7nheeR4Cv1lEZ-zM7IP-7" target="c7nheeR4Cv1lEZ-zM7IP-9" edge="1">
          <mxGeometry relative="1" as="geometry" />
        </mxCell>
        <mxCell id="c7nheeR4Cv1lEZ-zM7IP-7" value="Rezept einlÃ¶sen" style="rounded=1;whiteSpace=wrap;html=1;fontSize=12;glass=0;strokeWidth=1;shadow=0;fillColor=#f8cecc;strokeColor=#b85450;" parent="1" vertex="1">
          <mxGeometry x="374" y="93" width="120" height="40" as="geometry" />
        </mxCell>
        <mxCell id="c7nheeR4Cv1lEZ-zM7IP-8" style="edgeStyle=orthogonalEdgeStyle;rounded=0;orthogonalLoop=1;jettySize=auto;html=1;exitX=0.5;exitY=1;exitDx=0;exitDy=0;entryX=1;entryY=0.5;entryDx=0;entryDy=0;fillColor=#e1d5e7;strokeColor=#7EA6E0;" parent="1" source="c7nheeR4Cv1lEZ-zM7IP-9" target="c7nheeR4Cv1lEZ-zM7IP-24" edge="1">
          <mxGeometry relative="1" as="geometry" />
        </mxCell>
        <mxCell id="c7nheeR4Cv1lEZ-zM7IP-9" value="Folge-rezept" style="rounded=1;whiteSpace=wrap;html=1;fontSize=12;glass=0;strokeWidth=1;shadow=0;fillColor=#dae8fc;strokeColor=#6c8ebf;" parent="1" vertex="1">
          <mxGeometry x="509" y="143" width="120" height="40" as="geometry" />
        </mxCell>
        <mxCell id="8Lw8EcfPyX1pXc70tfC4-2" value="" style="edgeStyle=orthogonalEdgeStyle;rounded=0;orthogonalLoop=1;jettySize=auto;html=1;strokeColor=#7EA6E0;" parent="1" source="c7nheeR4Cv1lEZ-zM7IP-11" target="8Lw8EcfPyX1pXc70tfC4-1" edge="1">
          <mxGeometry relative="1" as="geometry" />
        </mxCell>
        <mxCell id="c7nheeR4Cv1lEZ-zM7IP-11" value="Mir Fragebogen" style="rounded=1;whiteSpace=wrap;html=1;fontSize=12;glass=0;strokeWidth=1;shadow=0;fillColor=#dae8fc;strokeColor=#6c8ebf;" parent="1" vertex="1">
          <mxGeometry x="233" y="558" width="120" height="40" as="geometry" />
        </mxCell>
        <mxCell id="Q-ECmKFL7cBIkWH3QSio-20" style="edgeStyle=orthogonalEdgeStyle;rounded=0;orthogonalLoop=1;jettySize=auto;html=1;exitX=0.5;exitY=0;exitDx=0;exitDy=0;entryX=0.5;entryY=1;entryDx=0;entryDy=0;startArrow=none;startFill=0;strokeColor=#7EA6E0;" parent="1" source="c7nheeR4Cv1lEZ-zM7IP-21" target="2mvnybx2gDGMd5j6eMJd-20" edge="1">
          <mxGeometry relative="1" as="geometry" />
        </mxCell>
        <mxCell id="c7nheeR4Cv1lEZ-zM7IP-21" value="Produktempfelung" style="rounded=1;whiteSpace=wrap;html=1;fontSize=12;glass=0;strokeWidth=1;shadow=0;fillColor=#dae8fc;strokeColor=#6c8ebf;" parent="1" vertex="1">
          <mxGeometry x="379" y="870" width="120" height="40" as="geometry" />
        </mxCell>
        <mxCell id="c7nheeR4Cv1lEZ-zM7IP-22" value="Ersterezept" style="rounded=1;whiteSpace=wrap;html=1;fontSize=12;glass=0;strokeWidth=1;shadow=0;fillColor=#dae8fc;strokeColor=#6c8ebf;" parent="1" vertex="1">
          <mxGeometry x="269" y="193" width="120" height="40" as="geometry" />
        </mxCell>
        <mxCell id="c7nheeR4Cv1lEZ-zM7IP-23" value="" style="edgeStyle=orthogonalEdgeStyle;rounded=0;orthogonalLoop=1;jettySize=auto;html=1;strokeColor=#7EA6E0;" parent="1" source="c7nheeR4Cv1lEZ-zM7IP-24" target="c7nheeR4Cv1lEZ-zM7IP-26" edge="1">
          <mxGeometry relative="1" as="geometry" />
        </mxCell>
        <mxCell id="c7nheeR4Cv1lEZ-zM7IP-24" value="Rezept upload" style="rounded=1;whiteSpace=wrap;html=1;fontSize=12;glass=0;strokeWidth=1;shadow=0;fillColor=#dae8fc;strokeColor=#6C8EBF;" parent="1" vertex="1">
          <mxGeometry x="269" y="255" width="120" height="40" as="geometry" />
        </mxCell>
        <mxCell id="c7nheeR4Cv1lEZ-zM7IP-25" value="" style="edgeStyle=orthogonalEdgeStyle;rounded=0;orthogonalLoop=1;jettySize=auto;html=1;strokeColor=#7EA6E0;" parent="1" source="c7nheeR4Cv1lEZ-zM7IP-26" target="c7nheeR4Cv1lEZ-zM7IP-29" edge="1">
          <mxGeometry relative="1" as="geometry" />
        </mxCell>
        <mxCell id="2mvnybx2gDGMd5j6eMJd-46" value="" style="edgeStyle=orthogonalEdgeStyle;rounded=0;orthogonalLoop=1;jettySize=auto;html=1;strokeColor=#7EA6E0;" parent="1" source="c7nheeR4Cv1lEZ-zM7IP-26" target="c7nheeR4Cv1lEZ-zM7IP-29" edge="1">
          <mxGeometry relative="1" as="geometry" />
        </mxCell>
        <mxCell id="c7nheeR4Cv1lEZ-zM7IP-26" value="OCR" style="rounded=1;whiteSpace=wrap;html=1;fontSize=12;glass=0;strokeWidth=1;shadow=0;fillColor=#dae8fc;strokeColor=#6c8ebf;" parent="1" vertex="1">
          <mxGeometry x="269" y="312" width="120" height="40" as="geometry" />
        </mxCell>
        <mxCell id="3sTM7CXVGYwM3eGU3Tkj-2" style="edgeStyle=orthogonalEdgeStyle;rounded=0;orthogonalLoop=1;jettySize=auto;html=1;exitX=0.25;exitY=1;exitDx=0;exitDy=0;entryX=0.5;entryY=0;entryDx=0;entryDy=0;strokeColor=#7EA6E0;" parent="1" source="c7nheeR4Cv1lEZ-zM7IP-29" target="c7nheeR4Cv1lEZ-zM7IP-33" edge="1">
          <mxGeometry relative="1" as="geometry" />
        </mxCell>
        <mxCell id="Q-ECmKFL7cBIkWH3QSio-3" style="edgeStyle=orthogonalEdgeStyle;rounded=0;orthogonalLoop=1;jettySize=auto;html=1;exitX=0.75;exitY=1;exitDx=0;exitDy=0;entryX=0.129;entryY=-0.075;entryDx=0;entryDy=0;entryPerimeter=0;startArrow=none;startFill=0;strokeColor=#7EA6E0;" parent="1" source="c7nheeR4Cv1lEZ-zM7IP-29" target="c7nheeR4Cv1lEZ-zM7IP-35" edge="1">
          <mxGeometry relative="1" as="geometry">
            <Array as="points">
              <mxPoint x="380" y="440" />
              <mxPoint x="380" y="580" />
              <mxPoint x="405" y="580" />
            </Array>
          </mxGeometry>
        </mxCell>
        <mxCell id="c7nheeR4Cv1lEZ-zM7IP-29" value="Daten Speichern" style="rounded=1;whiteSpace=wrap;html=1;fontSize=12;glass=0;strokeWidth=1;shadow=0;fillColor=#dae8fc;strokeColor=#6c8ebf;" parent="1" vertex="1">
          <mxGeometry x="269" y="400" width="120" height="40" as="geometry" />
        </mxCell>
        <mxCell id="c7nheeR4Cv1lEZ-zM7IP-30" value="" style="endArrow=classic;html=1;exitX=0.5;exitY=1;exitDx=0;exitDy=0;entryX=0.5;entryY=0;entryDx=0;entryDy=0;strokeColor=#7EA6E0;" parent="1" source="c7nheeR4Cv1lEZ-zM7IP-22" target="c7nheeR4Cv1lEZ-zM7IP-24" edge="1">
          <mxGeometry width="50" height="50" relative="1" as="geometry">
            <mxPoint x="399" y="136" as="sourcePoint" />
            <mxPoint x="449" y="86" as="targetPoint" />
          </mxGeometry>
        </mxCell>
        <mxCell id="c7nheeR4Cv1lEZ-zM7IP-31" style="edgeStyle=orthogonalEdgeStyle;rounded=0;orthogonalLoop=1;jettySize=auto;html=1;exitX=0.5;exitY=1;exitDx=0;exitDy=0;entryX=0.5;entryY=0;entryDx=0;entryDy=0;strokeColor=#7EA6E0;" parent="1" source="c7nheeR4Cv1lEZ-zM7IP-33" target="c7nheeR4Cv1lEZ-zM7IP-11" edge="1">
          <mxGeometry relative="1" as="geometry" />
        </mxCell>
        <mxCell id="c7nheeR4Cv1lEZ-zM7IP-32" style="edgeStyle=orthogonalEdgeStyle;rounded=0;orthogonalLoop=1;jettySize=auto;html=1;exitX=0.5;exitY=1;exitDx=0;exitDy=0;entryX=0.5;entryY=0;entryDx=0;entryDy=0;strokeColor=#7EA6E0;" parent="1" source="c7nheeR4Cv1lEZ-zM7IP-33" target="c7nheeR4Cv1lEZ-zM7IP-48" edge="1">
          <mxGeometry relative="1" as="geometry" />
        </mxCell>
        <mxCell id="c7nheeR4Cv1lEZ-zM7IP-33" value="Zur Beratung (Anamnesis)" style="rounded=1;whiteSpace=wrap;html=1;fontSize=12;glass=0;strokeWidth=1;shadow=0;fillColor=#e1d5e7;strokeColor=#9673a6;" parent="1" vertex="1">
          <mxGeometry x="154" y="480" width="120" height="40" as="geometry" />
        </mxCell>
        <mxCell id="Q-ECmKFL7cBIkWH3QSio-19" style="edgeStyle=orthogonalEdgeStyle;rounded=0;orthogonalLoop=1;jettySize=auto;html=1;exitX=0.75;exitY=1;exitDx=0;exitDy=0;entryX=0;entryY=0.5;entryDx=0;entryDy=0;startArrow=none;startFill=0;strokeColor=#7EA6E0;" parent="1" source="c7nheeR4Cv1lEZ-zM7IP-35" target="2mvnybx2gDGMd5j6eMJd-20" edge="1">
          <mxGeometry relative="1" as="geometry" />
        </mxCell>
        <mxCell id="AGHFZE-TPbzD5FZ_gHsH-3" style="edgeStyle=orthogonalEdgeStyle;rounded=0;orthogonalLoop=1;jettySize=auto;html=1;exitX=0.5;exitY=1;exitDx=0;exitDy=0;entryX=0.394;entryY=0.033;entryDx=0;entryDy=0;entryPerimeter=0;" edge="1" parent="1" source="c7nheeR4Cv1lEZ-zM7IP-35" target="c7nheeR4Cv1lEZ-zM7IP-21">
          <mxGeometry relative="1" as="geometry" />
        </mxCell>
        <mxCell id="c7nheeR4Cv1lEZ-zM7IP-35" value="Product finden" style="rounded=1;whiteSpace=wrap;html=1;fontSize=12;glass=0;strokeWidth=1;shadow=0;fillColor=#f8cecc;strokeColor=#b85450;" parent="1" vertex="1">
          <mxGeometry x="389" y="720" width="120" height="40" as="geometry" />
        </mxCell>
        <mxCell id="Q-ECmKFL7cBIkWH3QSio-12" style="edgeStyle=orthogonalEdgeStyle;rounded=0;orthogonalLoop=1;jettySize=auto;html=1;exitX=0.5;exitY=1;exitDx=0;exitDy=0;entryX=0.5;entryY=0;entryDx=0;entryDy=0;startArrow=none;startFill=0;strokeColor=#BD7000;fillColor=#f0a30a;" parent="1" source="c7nheeR4Cv1lEZ-zM7IP-37" target="2mvnybx2gDGMd5j6eMJd-36" edge="1">
          <mxGeometry relative="1" as="geometry" />
        </mxCell>
        <mxCell id="c7nheeR4Cv1lEZ-zM7IP-37" value="stamdateanlagen" style="rounded=1;whiteSpace=wrap;html=1;fontSize=12;glass=0;strokeWidth=1;shadow=0;fillColor=#fff2cc;strokeColor=#d6b656;" parent="1" vertex="1">
          <mxGeometry x="68" y="1088" width="120" height="40" as="geometry" />
        </mxCell>
        <mxCell id="c7nheeR4Cv1lEZ-zM7IP-40" value="Receiver Order" style="rounded=1;whiteSpace=wrap;html=1;fontSize=12;glass=0;strokeWidth=1;shadow=0;fillColor=#dae8fc;strokeColor=#6c8ebf;" parent="1" vertex="1">
          <mxGeometry x="1297" y="558" width="120" height="40" as="geometry" />
        </mxCell>
        <mxCell id="RFfzMiclbLoLRQgerotc-2" value="" style="edgeStyle=orthogonalEdgeStyle;rounded=0;orthogonalLoop=1;jettySize=auto;html=1;" parent="1" source="c7nheeR4Cv1lEZ-zM7IP-45" target="RFfzMiclbLoLRQgerotc-1" edge="1">
          <mxGeometry relative="1" as="geometry" />
        </mxCell>
        <mxCell id="c7nheeR4Cv1lEZ-zM7IP-45" value="Muster bewerten" style="rounded=1;whiteSpace=wrap;html=1;fontSize=12;glass=0;strokeWidth=1;shadow=0;fillColor=#dae8fc;strokeColor=#6c8ebf;" parent="1" vertex="1">
          <mxGeometry x="1527" y="558" width="120" height="40" as="geometry" />
        </mxCell>
        <mxCell id="c7nheeR4Cv1lEZ-zM7IP-46" value="" style="endArrow=classic;html=1;entryX=0;entryY=0.5;entryDx=0;entryDy=0;exitX=1;exitY=0.5;exitDx=0;exitDy=0;" parent="1" source="c7nheeR4Cv1lEZ-zM7IP-40" target="c7nheeR4Cv1lEZ-zM7IP-45" edge="1">
          <mxGeometry width="50" height="50" relative="1" as="geometry">
            <mxPoint x="1256" y="617" as="sourcePoint" />
            <mxPoint x="1306" y="567" as="targetPoint" />
          </mxGeometry>
        </mxCell>
        <mxCell id="c7nheeR4Cv1lEZ-zM7IP-47" value="" style="edgeStyle=orthogonalEdgeStyle;rounded=0;orthogonalLoop=1;jettySize=auto;html=1;fontSize=30;strokeColor=#7EA6E0;" parent="1" source="c7nheeR4Cv1lEZ-zM7IP-48" target="c7nheeR4Cv1lEZ-zM7IP-52" edge="1">
          <mxGeometry relative="1" as="geometry" />
        </mxCell>
        <mxCell id="c7nheeR4Cv1lEZ-zM7IP-48" value="Mit telefonischer Beratung" style="rounded=1;whiteSpace=wrap;html=1;fillColor=#dae8fc;strokeColor=#6c8ebf;" parent="1" vertex="1">
          <mxGeometry x="80" y="558" width="120" height="40" as="geometry" />
        </mxCell>
        <mxCell id="c7nheeR4Cv1lEZ-zM7IP-49" value="&lt;div&gt;&lt;span&gt;Patient&lt;/span&gt;&lt;/div&gt;&lt;div style=&quot;text-align: center&quot;&gt;&lt;span&gt;Portal&lt;/span&gt;&lt;/div&gt;" style="shape=step;perimeter=stepPerimeter;whiteSpace=wrap;html=1;fixedSize=1;fontSize=30;align=right;fillColor=#dae8fc;strokeColor=#6c8ebf;" parent="1" vertex="1">
          <mxGeometry x="-288" y="210" width="126" height="540" as="geometry" />
        </mxCell>
        <mxCell id="c7nheeR4Cv1lEZ-zM7IP-50" value="Berater&lt;br&gt;&lt;div style=&quot;text-align: center&quot;&gt;&lt;span&gt;Portal&lt;/span&gt;&lt;/div&gt;" style="shape=step;perimeter=stepPerimeter;whiteSpace=wrap;html=1;fixedSize=1;fontSize=30;align=right;fillColor=#fff2cc;strokeColor=#d6b656;" parent="1" vertex="1">
          <mxGeometry x="-288" y="954" width="126" height="540" as="geometry" />
        </mxCell>
        <mxCell id="8Lw8EcfPyX1pXc70tfC4-5" style="edgeStyle=orthogonalEdgeStyle;rounded=0;orthogonalLoop=1;jettySize=auto;html=1;exitX=0.25;exitY=1;exitDx=0;exitDy=0;entryX=0;entryY=0.5;entryDx=0;entryDy=0;fillColor=#f0a30a;strokeColor=#FFB570;" parent="1" source="c7nheeR4Cv1lEZ-zM7IP-52" target="2mvnybx2gDGMd5j6eMJd-36" edge="1">
          <mxGeometry relative="1" as="geometry" />
        </mxCell>
        <mxCell id="8Lw8EcfPyX1pXc70tfC4-7" style="edgeStyle=orthogonalEdgeStyle;rounded=0;orthogonalLoop=1;jettySize=auto;html=1;exitX=0.75;exitY=1;exitDx=0;exitDy=0;entryX=0.852;entryY=-0.081;entryDx=0;entryDy=0;entryPerimeter=0;fillColor=#f0a30a;strokeColor=#FFB570;" parent="1" source="c7nheeR4Cv1lEZ-zM7IP-52" target="c7nheeR4Cv1lEZ-zM7IP-37" edge="1">
          <mxGeometry relative="1" as="geometry" />
        </mxCell>
        <mxCell id="vl-eUYaVZCRtZTr2velE-1" style="edgeStyle=orthogonalEdgeStyle;rounded=0;orthogonalLoop=1;jettySize=auto;html=1;exitX=1;exitY=0.5;exitDx=0;exitDy=0;entryX=0;entryY=0.5;entryDx=0;entryDy=0;strokeColor=#7EA6E0;" parent="1" source="c7nheeR4Cv1lEZ-zM7IP-52" target="8Lw8EcfPyX1pXc70tfC4-1" edge="1">
          <mxGeometry relative="1" as="geometry" />
        </mxCell>
        <mxCell id="vAhKSoKgv1G7b5VEpWJS-1" value="" style="edgeStyle=orthogonalEdgeStyle;rounded=0;orthogonalLoop=1;jettySize=auto;html=1;strokeColor=#FFB570;" parent="1" source="c7nheeR4Cv1lEZ-zM7IP-52" target="8Lw8EcfPyX1pXc70tfC4-1" edge="1">
          <mxGeometry relative="1" as="geometry" />
        </mxCell>
        <mxCell id="c7nheeR4Cv1lEZ-zM7IP-52" value="RÃ¼ckruf vereinbaren" style="rounded=1;whiteSpace=wrap;html=1;fillColor=#f8cecc;strokeColor=#b85450;" parent="1" vertex="1">
          <mxGeometry x="80" y="630" width="120" height="40" as="geometry" />
        </mxCell>
        <mxCell id="c7nheeR4Cv1lEZ-zM7IP-53" value="&lt;font style=&quot;font-size: 12px&quot;&gt;&lt;b&gt;&lt;i&gt;Patient&lt;/i&gt;&lt;/b&gt;&lt;/font&gt;" style="shape=umlActor;verticalLabelPosition=bottom;verticalAlign=top;html=1;outlineConnect=0;dashed=1;dashPattern=1 4;fillColor=#dae8fc;fontSize=30;strokeColor=#6c8ebf;" parent="1" vertex="1">
          <mxGeometry x="-72" y="40" width="30" height="62" as="geometry" />
        </mxCell>
        <mxCell id="c7nheeR4Cv1lEZ-zM7IP-54" value="&lt;span style=&quot;font-size: 12px&quot;&gt;&lt;b&gt;&lt;i&gt;Berater&lt;/i&gt;&lt;/b&gt;&lt;/span&gt;" style="shape=umlActor;verticalLabelPosition=bottom;verticalAlign=top;html=1;outlineConnect=0;dashed=1;dashPattern=1 4;fillColor=#fff2cc;fontSize=30;strokeColor=#d6b656;" parent="1" vertex="1">
          <mxGeometry x="-162" y="940" width="30" height="62" as="geometry" />
        </mxCell>
        <mxCell id="c7nheeR4Cv1lEZ-zM7IP-56" value="Benutzerkonto anlegen" style="rounded=1;whiteSpace=wrap;html=1;fontSize=12;glass=0;strokeWidth=1;shadow=0;fillColor=#e1d5e7;strokeColor=#9673a6;" parent="1" vertex="1">
          <mxGeometry x="890" y="720" width="120" height="40" as="geometry" />
        </mxCell>
        <mxCell id="2mvnybx2gDGMd5j6eMJd-16" style="edgeStyle=orthogonalEdgeStyle;rounded=0;orthogonalLoop=1;jettySize=auto;html=1;exitX=1;exitY=0.5;exitDx=0;exitDy=0;entryX=0;entryY=0.5;entryDx=0;entryDy=0;strokeColor=#7EA6E0;" parent="1" source="jtWPIGQ9lgPhIsARCJN1-1" target="c7nheeR4Cv1lEZ-zM7IP-56" edge="1">
          <mxGeometry relative="1" as="geometry" />
        </mxCell>
        <mxCell id="jtWPIGQ9lgPhIsARCJN1-1" value="Produkt kaufen (Gastprodukt kaufen)" style="rounded=1;whiteSpace=wrap;html=1;fontSize=12;glass=0;strokeWidth=1;shadow=0;fillColor=#f8cecc;strokeColor=#b85450;" parent="1" vertex="1">
          <mxGeometry x="730" y="720" width="120" height="40" as="geometry" />
        </mxCell>
        <mxCell id="RFfzMiclbLoLRQgerotc-4" value="" style="edgeStyle=orthogonalEdgeStyle;rounded=0;orthogonalLoop=1;jettySize=auto;html=1;" parent="1" source="RFfzMiclbLoLRQgerotc-1" target="RFfzMiclbLoLRQgerotc-3" edge="1">
          <mxGeometry relative="1" as="geometry" />
        </mxCell>
        <mxCell id="RFfzMiclbLoLRQgerotc-1" value="one should be able to rate the quality of the articles&amp;nbsp;" style="rounded=1;whiteSpace=wrap;html=1;fontSize=12;glass=0;strokeWidth=1;shadow=0;fillColor=#e1d5e7;strokeColor=#9673a6;" parent="1" vertex="1">
          <mxGeometry x="1510" y="630" width="120" height="40" as="geometry" />
        </mxCell>
        <mxCell id="RFfzMiclbLoLRQgerotc-3" value="Muster bewerten" style="rounded=1;whiteSpace=wrap;html=1;fontSize=12;glass=0;strokeWidth=1;shadow=0;fillColor=#e1d5e7;strokeColor=#9673a6;" parent="1" vertex="1">
          <mxGeometry x="1360" y="690" width="120" height="40" as="geometry" />
        </mxCell>
        <mxCell id="c7nheeR4Cv1lEZ-zM7IP-61" value="&lt;span style=&quot;font-family: &amp;#34;calibri&amp;#34; , &amp;#34;segoe ui&amp;#34; , &amp;#34;calibri&amp;#34; , &amp;#34;thonburi&amp;#34; , &amp;#34;arial&amp;#34; , &amp;#34;verdana&amp;#34; , sans-serif , &amp;#34;mongolian baiti&amp;#34; , &amp;#34;microsoft yi baiti&amp;#34; , &amp;#34;javanese text&amp;#34; ; font-size: 14.6667px ; background-color: rgb(255 , 255 , 255)&quot;&gt;Segmentierungen werden als PrÃ¤ferenz gespeichert&lt;/span&gt;" style="rounded=1;whiteSpace=wrap;html=1;fontSize=12;glass=0;strokeWidth=1;shadow=0;fillColor=none;strokeColor=none;" parent="1" vertex="1">
          <mxGeometry x="460" y="990" width="166" height="40" as="geometry" />
        </mxCell>
        <mxCell id="2rWYULEwYTY-TnV6B5xV-4" value="&lt;div&gt;Kontodaten verwalten&lt;/div&gt;&lt;div&gt;Patient&lt;/div&gt;" style="rounded=1;whiteSpace=wrap;html=1;fontSize=12;glass=0;strokeWidth=1;shadow=0;fillColor=#e1d5e7;strokeColor=#9673a6;" parent="1" vertex="1">
          <mxGeometry x="770" y="45" width="120" height="40" as="geometry" />
        </mxCell>
        <mxCell id="2mvnybx2gDGMd5j6eMJd-1" value="Versorgungsstatus Patient" style="rounded=1;whiteSpace=wrap;html=1;fontSize=12;glass=0;strokeWidth=1;shadow=0;fillColor=#fff2cc;strokeColor=#d6b656;" parent="1" vertex="1">
          <mxGeometry x="890" y="798" width="120" height="40" as="geometry" />
        </mxCell>
        <mxCell id="2mvnybx2gDGMd5j6eMJd-3" value="Bestellungen prÃ¼fen Patient" style="rounded=1;whiteSpace=wrap;html=1;fontSize=12;glass=0;strokeWidth=1;shadow=0;fillColor=#e1d5e7;strokeColor=#9673a6;" parent="1" vertex="1">
          <mxGeometry x="1130" y="890" width="120" height="40" as="geometry" />
        </mxCell>
        <mxCell id="2mvnybx2gDGMd5j6eMJd-7" value="&lt;span&gt;pick delivery address,&lt;/span&gt;&lt;br&gt;&lt;span&gt;pick billing data,&amp;nbsp;Product Kaufen&lt;/span&gt;" style="rounded=1;whiteSpace=wrap;html=1;fontSize=12;glass=0;strokeWidth=1;shadow=0;fillColor=#dae8fc;strokeColor=#6c8ebf;" parent="1" vertex="1">
          <mxGeometry x="1130" y="770" width="120" height="40" as="geometry" />
        </mxCell>
        <mxCell id="2mvnybx2gDGMd5j6eMJd-8" value="Muster Bestellen" style="rounded=1;whiteSpace=wrap;html=1;fontSize=12;glass=0;strokeWidth=1;shadow=0;fillColor=#dae8fc;strokeColor=#6c8ebf;" parent="1" vertex="1">
          <mxGeometry x="554" y="667" width="120" height="40" as="geometry" />
        </mxCell>
        <mxCell id="2mvnybx2gDGMd5j6eMJd-28" style="edgeStyle=orthogonalEdgeStyle;rounded=0;orthogonalLoop=1;jettySize=auto;html=1;exitX=1;exitY=0.5;exitDx=0;exitDy=0;entryX=0;entryY=0.5;entryDx=0;entryDy=0;strokeColor=#7EA6E0;" parent="1" source="2mvnybx2gDGMd5j6eMJd-20" target="jtWPIGQ9lgPhIsARCJN1-1" edge="1">
          <mxGeometry relative="1" as="geometry" />
        </mxCell>
        <mxCell id="2mvnybx2gDGMd5j6eMJd-20" value="Muster Bestellen" style="rounded=1;whiteSpace=wrap;html=1;fontSize=12;glass=0;strokeWidth=1;shadow=0;fillColor=#dae8fc;strokeColor=#6c8ebf;" parent="1" vertex="1">
          <mxGeometry x="563" y="790" width="120" height="40" as="geometry" />
        </mxCell>
        <mxCell id="3sTM7CXVGYwM3eGU3Tkj-7" style="edgeStyle=orthogonalEdgeStyle;rounded=0;orthogonalLoop=1;jettySize=auto;html=1;exitX=0;exitY=0;exitDx=0;exitDy=0;entryX=0.896;entryY=0.985;entryDx=0;entryDy=0;entryPerimeter=0;dashed=1;dashPattern=1 4;endArrow=none;endFill=0;strokeColor=#000000;" parent="1" source="2mvnybx2gDGMd5j6eMJd-30" target="jtWPIGQ9lgPhIsARCJN1-1" edge="1">
          <mxGeometry relative="1" as="geometry" />
        </mxCell>
        <mxCell id="2mvnybx2gDGMd5j6eMJd-30" value="&lt;span style=&quot;color: rgb(0 , 0 , 0) ; font-family: &amp;#34;helvetica&amp;#34; ; font-size: 12px ; font-style: normal ; font-weight: 400 ; letter-spacing: normal ; text-indent: 0px ; text-transform: none ; word-spacing: 0px ; background-color: rgb(248 , 249 , 250) ; display: inline ; float: none&quot;&gt;Add To Cart, add another product, change amount per product,&lt;/span&gt;&lt;br style=&quot;color: rgb(0 , 0 , 0) ; font-family: &amp;#34;helvetica&amp;#34; ; font-size: 12px ; font-style: normal ; font-weight: 400 ; letter-spacing: normal ; text-indent: 0px ; text-transform: none ; word-spacing: 0px ; background-color: rgb(248 , 249 , 250)&quot;&gt;&lt;span style=&quot;color: rgb(0 , 0 , 0) ; font-family: &amp;#34;helvetica&amp;#34; ; font-size: 12px ; font-style: normal ; font-weight: 400 ; letter-spacing: normal ; text-indent: 0px ; text-transform: none ; word-spacing: 0px ; background-color: rgb(248 , 249 , 250) ; display: inline ; float: none&quot;&gt;calculate prices per article/in total,&lt;/span&gt;" style="text;whiteSpace=wrap;html=1;align=center;strokeColor=#000000;dashed=1;dashPattern=1 4;" parent="1" vertex="1">
          <mxGeometry x="827" y="1000" width="109" height="102" as="geometry" />
        </mxCell>
        <mxCell id="2mvnybx2gDGMd5j6eMJd-34" value="Einrichtungstyp auswÃ¤hlen" style="rounded=1;whiteSpace=wrap;html=1;fontSize=12;glass=0;strokeWidth=1;shadow=0;fillColor=#fff2cc;strokeColor=#d6b656;" parent="1" vertex="1">
          <mxGeometry x="70" y="1240" width="120" height="40" as="geometry" />
        </mxCell>
        <mxCell id="2mvnybx2gDGMd5j6eMJd-36" value="Berater anlegen" style="rounded=1;whiteSpace=wrap;html=1;fontSize=12;glass=0;strokeWidth=1;shadow=0;fillColor=#fff2cc;strokeColor=#d6b656;" parent="1" vertex="1">
          <mxGeometry x="68" y="1170" width="120" height="40" as="geometry" />
        </mxCell>
        <mxCell id="2mvnybx2gDGMd5j6eMJd-38" value="Benutzer anlegen" style="rounded=1;whiteSpace=wrap;html=1;fontSize=12;glass=0;strokeWidth=1;shadow=0;fillColor=#fff2cc;strokeColor=#d6b656;" parent="1" vertex="1">
          <mxGeometry x="294" y="1160" width="120" height="40" as="geometry" />
        </mxCell>
        <mxCell id="2mvnybx2gDGMd5j6eMJd-40" value="Shop Berater" style="rounded=1;whiteSpace=wrap;html=1;fontSize=12;glass=0;strokeWidth=1;shadow=0;fillColor=#fff2cc;strokeColor=#d6b656;" parent="1" vertex="1">
          <mxGeometry x="294" y="1230" width="120" height="40" as="geometry" />
        </mxCell>
        <mxCell id="2mvnybx2gDGMd5j6eMJd-41" value="Folgerezept beantragen" style="rounded=1;whiteSpace=wrap;html=1;fontSize=12;glass=0;strokeWidth=1;shadow=0;fillColor=#fff2cc;strokeColor=#d6b656;" parent="1" vertex="1">
          <mxGeometry x="494" y="1140" width="120" height="40" as="geometry" />
        </mxCell>
        <mxCell id="2mvnybx2gDGMd5j6eMJd-42" value="Nachrichten austauschen" style="rounded=1;whiteSpace=wrap;html=1;fontSize=12;glass=0;strokeWidth=1;shadow=0;fillColor=#fff2cc;strokeColor=#d6b656;" parent="1" vertex="1">
          <mxGeometry x="494" y="1224" width="120" height="40" as="geometry" />
        </mxCell>
        <mxCell id="8Lw8EcfPyX1pXc70tfC4-8" style="edgeStyle=orthogonalEdgeStyle;rounded=0;orthogonalLoop=1;jettySize=auto;html=1;exitX=0.75;exitY=1;exitDx=0;exitDy=0;entryX=0;entryY=0.5;entryDx=0;entryDy=0;startArrow=none;startFill=0;fillColor=#f0a30a;strokeColor=#7EA6E0;" parent="1" source="8Lw8EcfPyX1pXc70tfC4-1" target="c7nheeR4Cv1lEZ-zM7IP-21" edge="1">
          <mxGeometry relative="1" as="geometry" />
        </mxCell>
        <mxCell id="8Lw8EcfPyX1pXc70tfC4-1" value="&lt;div&gt;Anamneseprozess&lt;/div&gt;&lt;div&gt;durchfÃ¼hren&lt;/div&gt;" style="rounded=1;whiteSpace=wrap;html=1;fontSize=12;glass=0;strokeWidth=1;shadow=0;fillColor=#dae8fc;strokeColor=#6c8ebf;" parent="1" vertex="1">
          <mxGeometry x="233" y="630" width="120" height="40" as="geometry" />
        </mxCell>
        <mxCell id="Q-ECmKFL7cBIkWH3QSio-4" value="" style="endArrow=classic;html=1;strokeColor=#7EA6E0;" parent="1" edge="1">
          <mxGeometry width="50" height="50" relative="1" as="geometry">
            <mxPoint x="-260" y="10" as="sourcePoint" />
            <mxPoint x="-180" y="10" as="targetPoint" />
          </mxGeometry>
        </mxCell>
        <mxCell id="Q-ECmKFL7cBIkWH3QSio-5" value="" style="endArrow=classic;html=1;dashed=1;" parent="1" edge="1">
          <mxGeometry width="50" height="50" relative="1" as="geometry">
            <mxPoint x="-260" y="64.17" as="sourcePoint" />
            <mxPoint x="-180" y="64.17" as="targetPoint" />
          </mxGeometry>
        </mxCell>
        <mxCell id="Q-ECmKFL7cBIkWH3QSio-6" value="Direct from homepage to" style="text;html=1;strokeColor=none;fillColor=none;align=center;verticalAlign=middle;whiteSpace=wrap;rounded=0;" parent="1" vertex="1">
          <mxGeometry x="-265" y="73" width="80" height="20" as="geometry" />
        </mxCell>
        <mxCell id="Q-ECmKFL7cBIkWH3QSio-7" value="Patient path" style="text;html=1;strokeColor=none;fillColor=none;align=center;verticalAlign=middle;whiteSpace=wrap;rounded=0;" parent="1" vertex="1">
          <mxGeometry x="-245" y="20" width="40" height="20" as="geometry" />
        </mxCell>
        <mxCell id="Q-ECmKFL7cBIkWH3QSio-16" value="" style="rounded=1;whiteSpace=wrap;html=1;fontSize=12;glass=0;strokeWidth=1;shadow=0;fillColor=#dae8fc;strokeColor=#6c8ebf;" parent="1" vertex="1">
          <mxGeometry x="550" y="585" width="120" height="40" as="geometry" />
        </mxCell>
        <mxCell id="Q-ECmKFL7cBIkWH3QSio-17" value="" style="rounded=1;whiteSpace=wrap;html=1;fontSize=12;glass=0;strokeWidth=1;shadow=0;fillColor=#dae8fc;strokeColor=#6c8ebf;" parent="1" vertex="1">
          <mxGeometry x="560" y="510" width="120" height="40" as="geometry" />
        </mxCell>
        <mxCell id="Q-ECmKFL7cBIkWH3QSio-18" value="" style="rounded=1;whiteSpace=wrap;html=1;fontSize=12;glass=0;strokeWidth=1;shadow=0;fillColor=#dae8fc;strokeColor=#6c8ebf;" parent="1" vertex="1">
          <mxGeometry x="570" y="440" width="120" height="40" as="geometry" />
        </mxCell>
        <mxCell id="Z4Q3AaH40pW_MtjIOYAI-1" value="Secure online signature" style="rounded=1;whiteSpace=wrap;html=1;fontSize=12;glass=0;strokeWidth=1;shadow=0;" parent="1" vertex="1">
          <mxGeometry x="-140" y="280" width="120" height="40" as="geometry" />
        </mxCell>
        <mxCell id="vl-eUYaVZCRtZTr2velE-3" value="" style="endArrow=classic;html=1;strokeColor=#FFB570;" parent="1" edge="1">
          <mxGeometry width="50" height="50" relative="1" as="geometry">
            <mxPoint x="-265" y="150" as="sourcePoint" />
            <mxPoint x="-185" y="150" as="targetPoint" />
          </mxGeometry>
        </mxCell>
        <mxCell id="vl-eUYaVZCRtZTr2velE-4" value="Berater path" style="text;html=1;strokeColor=none;fillColor=none;align=center;verticalAlign=middle;whiteSpace=wrap;rounded=0;" parent="1" vertex="1">
          <mxGeometry x="-250" y="123" width="40" height="20" as="geometry" />
        </mxCell>
        <mxCell id="ID9vRlOrNTSo7G_EoZv_-1" value="Consent management" style="rounded=1;whiteSpace=wrap;html=1;fontSize=12;glass=0;strokeWidth=1;shadow=0;" parent="1" vertex="1">
          <mxGeometry x="-140" y="340" width="120" height="40" as="geometry" />
        </mxCell>
      </root>
    </mxGraphModel>
  </diagram>
  <diagram id="tFsazot5UDuzvN4bmBim" name="Rezept einlosen">
    <mxGraphModel dx="2858" dy="1089" grid="1" gridSize="10" guides="1" tooltips="1" connect="1" arrows="1" fold="1" page="1" pageScale="1" pageWidth="827" pageHeight="1169" math="0" shadow="0">
      <root>
        <mxCell id="q34dCDONzooLWPpxG54O-0" />
        <mxCell id="q34dCDONzooLWPpxG54O-1" parent="q34dCDONzooLWPpxG54O-0" />
        <mxCell id="2i9bHOm-gdq7FOkkqi6v-0" style="edgeStyle=orthogonalEdgeStyle;rounded=0;orthogonalLoop=1;jettySize=auto;html=1;exitX=0.5;exitY=1;exitDx=0;exitDy=0;entryX=0.5;entryY=0;entryDx=0;entryDy=0;fillColor=#dae8fc;strokeColor=#7EA6E0;" parent="q34dCDONzooLWPpxG54O-1" source="2i9bHOm-gdq7FOkkqi6v-2" target="2i9bHOm-gdq7FOkkqi6v-5" edge="1">
          <mxGeometry relative="1" as="geometry" />
        </mxCell>
        <mxCell id="2i9bHOm-gdq7FOkkqi6v-1" style="edgeStyle=orthogonalEdgeStyle;rounded=0;orthogonalLoop=1;jettySize=auto;html=1;exitX=0.5;exitY=1;exitDx=0;exitDy=0;entryX=0;entryY=0.5;entryDx=0;entryDy=0;fontSize=30;strokeColor=#7EA6E0;" parent="q34dCDONzooLWPpxG54O-1" source="2i9bHOm-gdq7FOkkqi6v-2" target="2i9bHOm-gdq7FOkkqi6v-4" edge="1">
          <mxGeometry relative="1" as="geometry" />
        </mxCell>
        <mxCell id="2i9bHOm-gdq7FOkkqi6v-2" value="Rezept einlÃ¶sen" style="rounded=1;whiteSpace=wrap;html=1;fontSize=12;glass=0;strokeWidth=1;shadow=0;fillColor=#f8cecc;strokeColor=#b85450;" parent="q34dCDONzooLWPpxG54O-1" vertex="1">
          <mxGeometry x="374" y="92" width="120" height="40" as="geometry" />
        </mxCell>
        <mxCell id="2i9bHOm-gdq7FOkkqi6v-3" style="edgeStyle=orthogonalEdgeStyle;rounded=0;orthogonalLoop=1;jettySize=auto;html=1;exitX=0.5;exitY=1;exitDx=0;exitDy=0;entryX=1;entryY=0.5;entryDx=0;entryDy=0;strokeColor=#9673a6;fillColor=#e1d5e7;" parent="q34dCDONzooLWPpxG54O-1" source="2i9bHOm-gdq7FOkkqi6v-4" target="2i9bHOm-gdq7FOkkqi6v-7" edge="1">
          <mxGeometry relative="1" as="geometry" />
        </mxCell>
        <mxCell id="2i9bHOm-gdq7FOkkqi6v-4" value="Folge-rezept" style="rounded=1;whiteSpace=wrap;html=1;fontSize=12;glass=0;strokeWidth=1;shadow=0;fillColor=#dae8fc;strokeColor=#6c8ebf;" parent="q34dCDONzooLWPpxG54O-1" vertex="1">
          <mxGeometry x="509" y="143" width="120" height="40" as="geometry" />
        </mxCell>
        <mxCell id="2i9bHOm-gdq7FOkkqi6v-5" value="Ersterezept" style="rounded=1;whiteSpace=wrap;html=1;fontSize=12;glass=0;strokeWidth=1;shadow=0;fillColor=#dae8fc;strokeColor=#6c8ebf;" parent="q34dCDONzooLWPpxG54O-1" vertex="1">
          <mxGeometry x="269" y="193" width="120" height="40" as="geometry" />
        </mxCell>
        <mxCell id="2i9bHOm-gdq7FOkkqi6v-6" value="" style="edgeStyle=orthogonalEdgeStyle;rounded=0;orthogonalLoop=1;jettySize=auto;html=1;strokeColor=#7EA6E0;" parent="q34dCDONzooLWPpxG54O-1" source="2i9bHOm-gdq7FOkkqi6v-7" target="2i9bHOm-gdq7FOkkqi6v-10" edge="1">
          <mxGeometry relative="1" as="geometry" />
        </mxCell>
        <mxCell id="2i9bHOm-gdq7FOkkqi6v-7" value="Rezept upload" style="rounded=1;whiteSpace=wrap;html=1;fontSize=12;glass=0;strokeWidth=1;shadow=0;fillColor=#dae8fc;strokeColor=#6c8ebf;" parent="q34dCDONzooLWPpxG54O-1" vertex="1">
          <mxGeometry x="269" y="255" width="120" height="40" as="geometry" />
        </mxCell>
        <mxCell id="E143lUBNFCmcJHzHBwGq-8" style="edgeStyle=orthogonalEdgeStyle;rounded=0;orthogonalLoop=1;jettySize=auto;html=1;exitX=0.5;exitY=1;exitDx=0;exitDy=0;entryX=0.5;entryY=0;entryDx=0;entryDy=0;strokeColor=#000000;" parent="q34dCDONzooLWPpxG54O-1" source="2i9bHOm-gdq7FOkkqi6v-10" target="E143lUBNFCmcJHzHBwGq-6" edge="1">
          <mxGeometry relative="1" as="geometry" />
        </mxCell>
        <mxCell id="2i9bHOm-gdq7FOkkqi6v-10" value="OCR" style="rounded=1;whiteSpace=wrap;html=1;fontSize=12;glass=0;strokeWidth=1;shadow=0;fillColor=#dae8fc;strokeColor=#6c8ebf;" parent="q34dCDONzooLWPpxG54O-1" vertex="1">
          <mxGeometry x="269" y="312" width="120" height="40" as="geometry" />
        </mxCell>
        <mxCell id="yegy7WGIJIiIC4VN6rdF-0" style="edgeStyle=orthogonalEdgeStyle;rounded=0;orthogonalLoop=1;jettySize=auto;html=1;exitX=0.75;exitY=1;exitDx=0;exitDy=0;entryX=0.5;entryY=0;entryDx=0;entryDy=0;strokeColor=#7EA6E0;" parent="q34dCDONzooLWPpxG54O-1" source="2i9bHOm-gdq7FOkkqi6v-11" target="Ac96wr7Wo4nM_YrJI3CU-1" edge="1">
          <mxGeometry relative="1" as="geometry" />
        </mxCell>
        <mxCell id="yegy7WGIJIiIC4VN6rdF-1" style="edgeStyle=orthogonalEdgeStyle;rounded=0;orthogonalLoop=1;jettySize=auto;html=1;exitX=0.25;exitY=1;exitDx=0;exitDy=0;entryX=0.5;entryY=0;entryDx=0;entryDy=0;strokeColor=#7EA6E0;" parent="q34dCDONzooLWPpxG54O-1" source="2i9bHOm-gdq7FOkkqi6v-11" target="Ac96wr7Wo4nM_YrJI3CU-0" edge="1">
          <mxGeometry relative="1" as="geometry" />
        </mxCell>
        <mxCell id="2i9bHOm-gdq7FOkkqi6v-11" value="Daten Speichern" style="rounded=1;whiteSpace=wrap;html=1;fontSize=12;glass=0;strokeWidth=1;shadow=0;fillColor=#dae8fc;strokeColor=#6c8ebf;" parent="q34dCDONzooLWPpxG54O-1" vertex="1">
          <mxGeometry x="269" y="490" width="120" height="40" as="geometry" />
        </mxCell>
        <mxCell id="2i9bHOm-gdq7FOkkqi6v-12" value="" style="endArrow=classic;html=1;exitX=0.5;exitY=1;exitDx=0;exitDy=0;entryX=0.5;entryY=0;entryDx=0;entryDy=0;strokeColor=#7EA6E0;" parent="q34dCDONzooLWPpxG54O-1" source="2i9bHOm-gdq7FOkkqi6v-5" target="2i9bHOm-gdq7FOkkqi6v-7" edge="1">
          <mxGeometry width="50" height="50" relative="1" as="geometry">
            <mxPoint x="399" y="136" as="sourcePoint" />
            <mxPoint x="449" y="86" as="targetPoint" />
          </mxGeometry>
        </mxCell>
        <mxCell id="2i9bHOm-gdq7FOkkqi6v-13" style="edgeStyle=orthogonalEdgeStyle;rounded=0;orthogonalLoop=1;jettySize=auto;html=1;exitX=0;exitY=0.5;exitDx=0;exitDy=0;entryX=1;entryY=0.5;entryDx=0;entryDy=0;dashed=1;dashPattern=1 4;endArrow=none;endFill=0;" parent="q34dCDONzooLWPpxG54O-1" source="2i9bHOm-gdq7FOkkqi6v-14" target="2i9bHOm-gdq7FOkkqi6v-10" edge="1">
          <mxGeometry relative="1" as="geometry" />
        </mxCell>
        <mxCell id="2i9bHOm-gdq7FOkkqi6v-14" value="after OCR, patient should be able to update disease type, get informed the insurance coverage with validity check, able to continue with private pay" style="text;html=1;fillColor=none;align=center;verticalAlign=middle;whiteSpace=wrap;rounded=0;dashed=1;dashPattern=1 4;strokeColor=#000000;" parent="q34dCDONzooLWPpxG54O-1" vertex="1">
          <mxGeometry x="590" y="280" width="265" height="78" as="geometry" />
        </mxCell>
        <mxCell id="l033wOQedcvUOWr-XbWR-1" value="&lt;div style=&quot;text-align: left&quot;&gt;&lt;b style=&quot;font-size: 14px&quot;&gt;Rezept upload form&lt;/b&gt;&lt;/div&gt;&lt;font&gt;&lt;div style=&quot;text-align: left&quot;&gt;&lt;span style=&quot;font-size: 14px&quot;&gt;-Patient info&lt;/span&gt;&lt;/div&gt;&lt;font style=&quot;font-size: 14px&quot;&gt;&lt;div style=&quot;text-align: left&quot;&gt;&lt;span&gt;-Doctor info&lt;/span&gt;&lt;/div&gt;&lt;div style=&quot;text-align: left&quot;&gt;&lt;span&gt;-Insurance info&lt;/span&gt;&lt;/div&gt;&lt;div style=&quot;text-align: left&quot;&gt;&lt;span&gt;-product info&lt;/span&gt;&lt;/div&gt;&lt;/font&gt;&lt;div style=&quot;text-align: left&quot;&gt;&lt;br&gt;&lt;/div&gt;&lt;/font&gt;" style="text;html=1;strokeColor=none;fillColor=none;align=center;verticalAlign=middle;whiteSpace=wrap;rounded=0;" parent="q34dCDONzooLWPpxG54O-1" vertex="1">
          <mxGeometry x="-10" y="233" width="170" height="20" as="geometry" />
        </mxCell>
        <mxCell id="l033wOQedcvUOWr-XbWR-71" value="- Pflegegrad" style="text;html=1;strokeColor=none;fillColor=none;align=center;verticalAlign=middle;whiteSpace=wrap;rounded=0;" parent="q34dCDONzooLWPpxG54O-1" vertex="1">
          <mxGeometry x="-60" y="400" width="80" height="20" as="geometry" />
        </mxCell>
        <mxCell id="E143lUBNFCmcJHzHBwGq-1" value="Private pay shop" style="rounded=1;whiteSpace=wrap;html=1;fontSize=12;glass=0;strokeWidth=1;shadow=0;fillColor=#dae8fc;strokeColor=#6c8ebf;" parent="q34dCDONzooLWPpxG54O-1" vertex="1">
          <mxGeometry x="480" y="440" width="120" height="40" as="geometry" />
        </mxCell>
        <mxCell id="E143lUBNFCmcJHzHBwGq-3" value="No" style="text;html=1;strokeColor=none;fillColor=none;align=center;verticalAlign=middle;whiteSpace=wrap;rounded=0;" parent="q34dCDONzooLWPpxG54O-1" vertex="1">
          <mxGeometry x="400" y="440" width="40" height="20" as="geometry" />
        </mxCell>
        <mxCell id="E143lUBNFCmcJHzHBwGq-5" value="Yes" style="text;html=1;strokeColor=none;fillColor=none;align=center;verticalAlign=middle;whiteSpace=wrap;rounded=0;" parent="q34dCDONzooLWPpxG54O-1" vertex="1">
          <mxGeometry x="280" y="460" width="40" height="20" as="geometry" />
        </mxCell>
        <mxCell id="E143lUBNFCmcJHzHBwGq-10" style="edgeStyle=orthogonalEdgeStyle;rounded=0;orthogonalLoop=1;jettySize=auto;html=1;exitX=0.5;exitY=1;exitDx=0;exitDy=0;entryX=0.5;entryY=0;entryDx=0;entryDy=0;strokeColor=#000000;" parent="q34dCDONzooLWPpxG54O-1" source="E143lUBNFCmcJHzHBwGq-6" target="2i9bHOm-gdq7FOkkqi6v-11" edge="1">
          <mxGeometry relative="1" as="geometry" />
        </mxCell>
        <mxCell id="E143lUBNFCmcJHzHBwGq-11" style="edgeStyle=orthogonalEdgeStyle;rounded=0;orthogonalLoop=1;jettySize=auto;html=1;exitX=0.5;exitY=1;exitDx=0;exitDy=0;entryX=0;entryY=0.5;entryDx=0;entryDy=0;strokeColor=#000000;" parent="q34dCDONzooLWPpxG54O-1" source="E143lUBNFCmcJHzHBwGq-6" target="E143lUBNFCmcJHzHBwGq-1" edge="1">
          <mxGeometry relative="1" as="geometry" />
        </mxCell>
        <mxCell id="E143lUBNFCmcJHzHBwGq-6" value="Validation with database/insurance" style="rounded=1;whiteSpace=wrap;html=1;fontSize=12;glass=0;strokeWidth=1;shadow=0;fillColor=#fff2cc;strokeColor=#d6b656;" parent="q34dCDONzooLWPpxG54O-1" vertex="1">
          <mxGeometry x="269" y="390" width="120" height="40" as="geometry" />
        </mxCell>
        <mxCell id="rbLHCqaphAN-nanW4xN4-0" value="- IK nummer&lt;br&gt;- versicherung nummer" style="text;html=1;strokeColor=none;fillColor=none;align=center;verticalAlign=middle;whiteSpace=wrap;rounded=0;" parent="q34dCDONzooLWPpxG54O-1" vertex="1">
          <mxGeometry x="80" y="400" width="140" height="20" as="geometry" />
        </mxCell>
        <mxCell id="rbLHCqaphAN-nanW4xN4-1" value="there is possiblity to check cost estimation with insurance, which should be considered as a factor to validate the prescription in term of cost coverage" style="text;html=1;strokeColor=none;fillColor=none;align=center;verticalAlign=middle;whiteSpace=wrap;rounded=0;" parent="q34dCDONzooLWPpxG54O-1" vertex="1">
          <mxGeometry x="-70" y="450" width="280" height="20" as="geometry" />
        </mxCell>
        <mxCell id="9qqb9Oh9G1Dnsdk3l6xn-2" style="edgeStyle=orthogonalEdgeStyle;rounded=0;orthogonalLoop=1;jettySize=auto;html=1;exitX=0.25;exitY=1;exitDx=0;exitDy=0;entryX=0.5;entryY=0;entryDx=0;entryDy=0;strokeColor=#7EA6E0;" parent="q34dCDONzooLWPpxG54O-1" source="Ac96wr7Wo4nM_YrJI3CU-0" target="9qqb9Oh9G1Dnsdk3l6xn-1" edge="1">
          <mxGeometry relative="1" as="geometry" />
        </mxCell>
        <mxCell id="9qqb9Oh9G1Dnsdk3l6xn-3" style="edgeStyle=orthogonalEdgeStyle;rounded=0;orthogonalLoop=1;jettySize=auto;html=1;exitX=0.75;exitY=1;exitDx=0;exitDy=0;entryX=0.5;entryY=0;entryDx=0;entryDy=0;strokeColor=#7EA6E0;" parent="q34dCDONzooLWPpxG54O-1" source="Ac96wr7Wo4nM_YrJI3CU-0" target="9qqb9Oh9G1Dnsdk3l6xn-0" edge="1">
          <mxGeometry relative="1" as="geometry" />
        </mxCell>
        <mxCell id="Ac96wr7Wo4nM_YrJI3CU-0" value="Zur Beratung (Anamnesis)" style="rounded=1;whiteSpace=wrap;html=1;fontSize=12;glass=0;strokeWidth=1;shadow=0;fillColor=#dae8fc;strokeColor=#6c8ebf;" parent="q34dCDONzooLWPpxG54O-1" vertex="1">
          <mxGeometry x="144" y="585" width="120" height="40" as="geometry" />
        </mxCell>
        <mxCell id="Ac96wr7Wo4nM_YrJI3CU-1" value="Product finden" style="rounded=1;whiteSpace=wrap;html=1;fontSize=12;glass=0;strokeWidth=1;shadow=0;fillColor=#f8cecc;strokeColor=#b85450;" parent="q34dCDONzooLWPpxG54O-1" vertex="1">
          <mxGeometry x="374" y="585" width="120" height="40" as="geometry" />
        </mxCell>
        <mxCell id="9qqb9Oh9G1Dnsdk3l6xn-0" value="Mir Fragebogen" style="rounded=1;whiteSpace=wrap;html=1;fontSize=12;glass=0;strokeWidth=1;shadow=0;fillColor=#dae8fc;strokeColor=#6c8ebf;" parent="q34dCDONzooLWPpxG54O-1" vertex="1">
          <mxGeometry x="220.5" y="680" width="120" height="40" as="geometry" />
        </mxCell>
        <mxCell id="9qqb9Oh9G1Dnsdk3l6xn-1" value="Mit telefonischer Beratung" style="rounded=1;whiteSpace=wrap;html=1;fillColor=#dae8fc;strokeColor=#6c8ebf;" parent="q34dCDONzooLWPpxG54O-1" vertex="1">
          <mxGeometry x="67.5" y="680" width="120" height="40" as="geometry" />
        </mxCell>
        <mxCell id="B_BHm9sK1VFDQZCRCQ3L-0" value="user should be able to save these data temprorarly either as guest or logedin uder" style="text;html=1;fillColor=none;align=center;verticalAlign=middle;whiteSpace=wrap;rounded=0;strokeColor=#000000;dashed=1;dashPattern=1 4;" parent="q34dCDONzooLWPpxG54O-1" vertex="1">
          <mxGeometry x="-80" y="490" width="263" height="40" as="geometry" />
        </mxCell>
        <mxCell id="DJmrN-8OTbOvwlC8oAyq-0" value="after OCR, patient should be able to update disease type, get informed the insurance coverage with validity check, able to continue with private pay" style="text;html=1;fillColor=none;align=center;verticalAlign=middle;whiteSpace=wrap;rounded=0;dashed=1;dashPattern=1 4;strokeColor=#000000;" parent="q34dCDONzooLWPpxG54O-1" vertex="1">
          <mxGeometry x="-70" y="293" width="265" height="78" as="geometry" />
        </mxCell>
      </root>
    </mxGraphModel>
  </diagram>
  <diagram id="O2IKOOxRkxltkSF_eElB" name="RÃ¼ckruf vereinbaren">
    <mxGraphModel dx="1422" dy="762" grid="1" gridSize="10" guides="1" tooltips="1" connect="1" arrows="1" fold="1" page="1" pageScale="1" pageWidth="827" pageHeight="1169" math="0" shadow="0">
      <root>
        <mxCell id="vm9W6NVqnNSlqjxnsasR-0" />
        <mxCell id="vm9W6NVqnNSlqjxnsasR-1" parent="vm9W6NVqnNSlqjxnsasR-0" />
        <mxCell id="zEWp2N9zFqfPJEcRFmHB-0" value="No" style="rounded=0;html=1;jettySize=auto;orthogonalLoop=1;fontSize=11;endArrow=block;endFill=0;endSize=8;strokeWidth=1;shadow=0;labelBackgroundColor=none;edgeStyle=orthogonalEdgeStyle;exitX=0.592;exitY=1;exitDx=0;exitDy=0;exitPerimeter=0;" parent="vm9W6NVqnNSlqjxnsasR-1" source="DHgN7y653kr361-ledHF-0" target="zEWp2N9zFqfPJEcRFmHB-3" edge="1">
          <mxGeometry x="0.3333" y="20" relative="1" as="geometry">
            <mxPoint as="offset" />
            <mxPoint x="220" y="620" as="sourcePoint" />
          </mxGeometry>
        </mxCell>
        <mxCell id="zEWp2N9zFqfPJEcRFmHB-1" value="Yes" style="edgeStyle=orthogonalEdgeStyle;rounded=0;html=1;jettySize=auto;orthogonalLoop=1;fontSize=11;endArrow=block;endFill=0;endSize=8;strokeWidth=1;shadow=0;labelBackgroundColor=none;exitX=1;exitY=0.5;exitDx=0;exitDy=0;" parent="vm9W6NVqnNSlqjxnsasR-1" source="DHgN7y653kr361-ledHF-0" target="zEWp2N9zFqfPJEcRFmHB-4" edge="1">
          <mxGeometry y="10" relative="1" as="geometry">
            <mxPoint as="offset" />
            <mxPoint x="280" y="580" as="sourcePoint" />
          </mxGeometry>
        </mxCell>
        <mxCell id="zEWp2N9zFqfPJEcRFmHB-3" value="Take Questionnaire" style="rounded=1;whiteSpace=wrap;html=1;fontSize=12;glass=0;strokeWidth=1;shadow=0;fillColor=#dae8fc;strokeColor=#6c8ebf;" parent="vm9W6NVqnNSlqjxnsasR-1" vertex="1">
          <mxGeometry x="160" y="700" width="120" height="40" as="geometry" />
        </mxCell>
        <mxCell id="zEWp2N9zFqfPJEcRFmHB-4" value="Input contact data and wait for call" style="rounded=1;whiteSpace=wrap;html=1;fontSize=12;glass=0;strokeWidth=1;shadow=0;fillColor=#dae8fc;strokeColor=#6c8ebf;" parent="vm9W6NVqnNSlqjxnsasR-1" vertex="1">
          <mxGeometry x="354" y="560" width="120" height="40" as="geometry" />
        </mxCell>
        <mxCell id="zEWp2N9zFqfPJEcRFmHB-5" value="Consultant takes Questionnaire for you while talking on the phone&lt;br&gt;" style="rounded=1;whiteSpace=wrap;html=1;fontSize=12;glass=0;strokeWidth=1;shadow=0;fillColor=#fff2cc;strokeColor=#d6b656;" parent="vm9W6NVqnNSlqjxnsasR-1" vertex="1">
          <mxGeometry x="354" y="680" width="124" height="70" as="geometry" />
        </mxCell>
        <mxCell id="zEWp2N9zFqfPJEcRFmHB-6" value="Add (Sample) Products to Basket" style="rounded=1;whiteSpace=wrap;html=1;fontSize=12;glass=0;strokeWidth=1;shadow=0;fillColor=#fff2cc;strokeColor=#d6b656;" parent="vm9W6NVqnNSlqjxnsasR-1" vertex="1">
          <mxGeometry x="680" y="565" width="120" height="40" as="geometry" />
        </mxCell>
        <mxCell id="zEWp2N9zFqfPJEcRFmHB-7" value="" style="endArrow=classic;html=1;exitX=0.5;exitY=1;exitDx=0;exitDy=0;" parent="vm9W6NVqnNSlqjxnsasR-1" source="zEWp2N9zFqfPJEcRFmHB-4" edge="1">
          <mxGeometry width="50" height="50" relative="1" as="geometry">
            <mxPoint x="420" y="610" as="sourcePoint" />
            <mxPoint x="414" y="680" as="targetPoint" />
          </mxGeometry>
        </mxCell>
        <mxCell id="zEWp2N9zFqfPJEcRFmHB-8" value="" style="endArrow=classic;html=1;entryX=0.5;entryY=1;entryDx=0;entryDy=0;" parent="vm9W6NVqnNSlqjxnsasR-1" target="zEWp2N9zFqfPJEcRFmHB-6" edge="1">
          <mxGeometry width="50" height="50" relative="1" as="geometry">
            <mxPoint x="480" y="720" as="sourcePoint" />
            <mxPoint x="520" y="630" as="targetPoint" />
            <Array as="points">
              <mxPoint x="740" y="720" />
            </Array>
          </mxGeometry>
        </mxCell>
        <mxCell id="zEWp2N9zFqfPJEcRFmHB-9" value="" style="endArrow=classic;html=1;exitX=0.5;exitY=1;exitDx=0;exitDy=0;entryX=0.5;entryY=1;entryDx=0;entryDy=0;" parent="vm9W6NVqnNSlqjxnsasR-1" source="zEWp2N9zFqfPJEcRFmHB-3" target="zEWp2N9zFqfPJEcRFmHB-6" edge="1">
          <mxGeometry width="50" height="50" relative="1" as="geometry">
            <mxPoint x="470" y="680" as="sourcePoint" />
            <mxPoint x="530" y="820" as="targetPoint" />
            <Array as="points">
              <mxPoint x="220" y="810" />
              <mxPoint x="740" y="810" />
            </Array>
          </mxGeometry>
        </mxCell>
        <mxCell id="zEWp2N9zFqfPJEcRFmHB-10" value="See pendiong call requests" style="rounded=1;whiteSpace=wrap;html=1;fontSize=12;glass=0;strokeWidth=1;shadow=0;fillColor=#fff2cc;strokeColor=#d6b656;" parent="vm9W6NVqnNSlqjxnsasR-1" vertex="1">
          <mxGeometry x="126" y="899" width="120" height="40" as="geometry" />
        </mxCell>
        <mxCell id="zEWp2N9zFqfPJEcRFmHB-11" value="" style="endArrow=classic;html=1;exitX=1;exitY=0.5;exitDx=0;exitDy=0;entryX=0;entryY=0.5;entryDx=0;entryDy=0;" parent="vm9W6NVqnNSlqjxnsasR-1" source="zEWp2N9zFqfPJEcRFmHB-10" target="zEWp2N9zFqfPJEcRFmHB-5" edge="1">
          <mxGeometry width="50" height="50" relative="1" as="geometry">
            <mxPoint x="342" y="959" as="sourcePoint" />
            <mxPoint x="392" y="909" as="targetPoint" />
            <Array as="points">
              <mxPoint x="315" y="919" />
              <mxPoint x="315" y="715" />
            </Array>
          </mxGeometry>
        </mxCell>
        <mxCell id="zEWp2N9zFqfPJEcRFmHB-12" value="Mark call request as finished" style="rounded=1;whiteSpace=wrap;html=1;fontSize=12;glass=0;strokeWidth=1;shadow=0;fillColor=#fff2cc;strokeColor=#d6b656;" parent="vm9W6NVqnNSlqjxnsasR-1" vertex="1">
          <mxGeometry x="783" y="899" width="120" height="40" as="geometry" />
        </mxCell>
        <mxCell id="zEWp2N9zFqfPJEcRFmHB-13" value="" style="endArrow=classic;html=1;exitX=0.5;exitY=1;exitDx=0;exitDy=0;entryX=0.567;entryY=0.05;entryDx=0;entryDy=0;entryPerimeter=0;" parent="vm9W6NVqnNSlqjxnsasR-1" source="zEWp2N9zFqfPJEcRFmHB-6" target="zEWp2N9zFqfPJEcRFmHB-12" edge="1">
          <mxGeometry width="50" height="50" relative="1" as="geometry">
            <mxPoint x="513" y="806" as="sourcePoint" />
            <mxPoint x="882" y="729" as="targetPoint" />
            <Array as="points">
              <mxPoint x="740" y="675" />
              <mxPoint x="851" y="675" />
            </Array>
          </mxGeometry>
        </mxCell>
        <mxCell id="zEWp2N9zFqfPJEcRFmHB-14" value="(Create Patient Account)" style="rounded=1;whiteSpace=wrap;html=1;fontSize=12;glass=0;strokeWidth=1;shadow=0;fillColor=#fff2cc;strokeColor=#d6b656;" parent="vm9W6NVqnNSlqjxnsasR-1" vertex="1">
          <mxGeometry x="837" y="565" width="120" height="40" as="geometry" />
        </mxCell>
        <mxCell id="zEWp2N9zFqfPJEcRFmHB-15" value="" style="endArrow=classic;html=1;exitX=1;exitY=0.5;exitDx=0;exitDy=0;entryX=0;entryY=0.5;entryDx=0;entryDy=0;" parent="vm9W6NVqnNSlqjxnsasR-1" source="zEWp2N9zFqfPJEcRFmHB-6" target="zEWp2N9zFqfPJEcRFmHB-14" edge="1">
          <mxGeometry width="50" height="50" relative="1" as="geometry">
            <mxPoint x="800" y="585" as="sourcePoint" />
            <mxPoint x="1008" y="585" as="targetPoint" />
          </mxGeometry>
        </mxCell>
        <mxCell id="DHgN7y653kr361-ledHF-0" value="RÃ¼ckruf vereinbaren" style="rounded=1;whiteSpace=wrap;html=1;fillColor=#f8cecc;strokeColor=#b85450;" parent="vm9W6NVqnNSlqjxnsasR-1" vertex="1">
          <mxGeometry x="149" y="560" width="120" height="40" as="geometry" />
        </mxCell>
        <mxCell id="JM3Gv1ue2B3dF1C_PjXb-0" value="&lt;span style=&quot;font-size: 12px&quot;&gt;&lt;b&gt;&lt;i&gt;Berater&lt;/i&gt;&lt;/b&gt;&lt;/span&gt;" style="shape=umlActor;verticalLabelPosition=bottom;verticalAlign=top;html=1;outlineConnect=0;dashed=1;dashPattern=1 4;fillColor=#fff2cc;fontSize=30;strokeColor=#d6b656;" parent="vm9W6NVqnNSlqjxnsasR-1" vertex="1">
          <mxGeometry x="80" y="870" width="30" height="62" as="geometry" />
        </mxCell>
        <mxCell id="F7VgiBTZze-vy0PMPHrw-1" value="&lt;font style=&quot;font-size: 12px&quot;&gt;&lt;b&gt;&lt;i&gt;Patient&lt;/i&gt;&lt;/b&gt;&lt;/font&gt;" style="shape=umlActor;verticalLabelPosition=bottom;verticalAlign=top;html=1;outlineConnect=0;dashed=1;dashPattern=1 4;fillColor=#dae8fc;fontSize=30;strokeColor=#6c8ebf;" parent="vm9W6NVqnNSlqjxnsasR-1" vertex="1">
          <mxGeometry x="96" y="522" width="30" height="62" as="geometry" />
        </mxCell>
      </root>
    </mxGraphModel>
  </diagram>
  <diagram id="8lt_BexI9gaXcQEgocRM" name="Anamneseprozess">
    <mxGraphModel dx="2249" dy="1931" grid="1" gridSize="10" guides="1" tooltips="1" connect="1" arrows="1" fold="1" page="1" pageScale="1" pageWidth="827" pageHeight="1169" math="0" shadow="0">
      <root>
        <mxCell id="eGC-7imbVLmDfGmRkEiL-0" />
        <mxCell id="eGC-7imbVLmDfGmRkEiL-1" parent="eGC-7imbVLmDfGmRkEiL-0" />
        <mxCell id="xjouxH2v024oqY-X4Osb-0" value="" style="edgeStyle=orthogonalEdgeStyle;rounded=0;orthogonalLoop=1;jettySize=auto;html=1;strokeColor=#7EA6E0;" parent="eGC-7imbVLmDfGmRkEiL-1" source="xjouxH2v024oqY-X4Osb-1" target="xjouxH2v024oqY-X4Osb-3" edge="1">
          <mxGeometry relative="1" as="geometry" />
        </mxCell>
        <mxCell id="xjouxH2v024oqY-X4Osb-1" value="Inkontinenzform (5 questions)" style="rounded=1;whiteSpace=wrap;html=1;fontSize=12;glass=0;strokeWidth=1;shadow=0;fillColor=#e1d5e7;strokeColor=#9673a6;" parent="eGC-7imbVLmDfGmRkEiL-1" vertex="1">
          <mxGeometry x="80" y="420" width="120" height="40" as="geometry" />
        </mxCell>
        <mxCell id="xjouxH2v024oqY-X4Osb-2" value="" style="edgeStyle=orthogonalEdgeStyle;rounded=0;orthogonalLoop=1;jettySize=auto;html=1;strokeColor=#7EA6E0;" parent="eGC-7imbVLmDfGmRkEiL-1" source="xjouxH2v024oqY-X4Osb-3" target="xjouxH2v024oqY-X4Osb-5" edge="1">
          <mxGeometry relative="1" as="geometry" />
        </mxCell>
        <mxCell id="xjouxH2v024oqY-X4Osb-3" value="Einflussfaktoren (3 questions)" style="rounded=1;whiteSpace=wrap;html=1;fontSize=12;glass=0;strokeWidth=1;shadow=0;fillColor=#e1d5e7;strokeColor=#9673a6;" parent="eGC-7imbVLmDfGmRkEiL-1" vertex="1">
          <mxGeometry x="80" y="473" width="120" height="40" as="geometry" />
        </mxCell>
        <mxCell id="xjouxH2v024oqY-X4Osb-4" value="" style="edgeStyle=orthogonalEdgeStyle;rounded=0;orthogonalLoop=1;jettySize=auto;html=1;strokeColor=#7EA6E0;" parent="eGC-7imbVLmDfGmRkEiL-1" source="xjouxH2v024oqY-X4Osb-5" target="xjouxH2v024oqY-X4Osb-6" edge="1">
          <mxGeometry relative="1" as="geometry" />
        </mxCell>
        <mxCell id="xjouxH2v024oqY-X4Osb-5" value="Versorgungssituation (4 questions)" style="rounded=1;whiteSpace=wrap;html=1;fontSize=12;glass=0;strokeWidth=1;shadow=0;fillColor=#e1d5e7;strokeColor=#9673a6;" parent="eGC-7imbVLmDfGmRkEiL-1" vertex="1">
          <mxGeometry x="80" y="527" width="120" height="40" as="geometry" />
        </mxCell>
        <mxCell id="xjouxH2v024oqY-X4Osb-6" value="WohlfÃ¼hlfaktoren" style="rounded=1;whiteSpace=wrap;html=1;fontSize=12;glass=0;strokeWidth=1;shadow=0;fillColor=#e1d5e7;strokeColor=#9673a6;" parent="eGC-7imbVLmDfGmRkEiL-1" vertex="1">
          <mxGeometry x="80" y="580.5" width="120" height="40" as="geometry" />
        </mxCell>
        <mxCell id="igWD5oE9TLMEyOKMKO6o-0" value="" style="rounded=0;whiteSpace=wrap;html=1;" parent="eGC-7imbVLmDfGmRkEiL-1" vertex="1">
          <mxGeometry x="80" y="320" width="720" height="60" as="geometry" />
        </mxCell>
        <mxCell id="igWD5oE9TLMEyOKMKO6o-2" style="edgeStyle=orthogonalEdgeStyle;rounded=0;orthogonalLoop=1;jettySize=auto;html=1;exitX=0.5;exitY=1;exitDx=0;exitDy=0;entryX=0.5;entryY=0;entryDx=0;entryDy=0;dashed=1;" parent="eGC-7imbVLmDfGmRkEiL-1" source="igWD5oE9TLMEyOKMKO6o-1" target="xjouxH2v024oqY-X4Osb-1" edge="1">
          <mxGeometry relative="1" as="geometry" />
        </mxCell>
        <mxCell id="igWD5oE9TLMEyOKMKO6o-1" value="&lt;font style=&quot;font-size: 14px&quot;&gt;Inkontinenz&lt;/font&gt;" style="rounded=1;whiteSpace=wrap;html=1;fontSize=12;glass=0;strokeWidth=1;shadow=0;fillColor=#a20025;strokeColor=#6F0000;fontColor=#ffffff;" parent="eGC-7imbVLmDfGmRkEiL-1" vertex="1">
          <mxGeometry x="80" y="320" width="120" height="60" as="geometry" />
        </mxCell>
        <mxCell id="igWD5oE9TLMEyOKMKO6o-3" value="&lt;font style=&quot;font-size: 14px&quot;&gt;Diabetes&lt;/font&gt;" style="rounded=1;whiteSpace=wrap;html=1;fontSize=12;glass=0;strokeWidth=1;shadow=0;fillColor=#f0a30a;strokeColor=#BD7000;fontColor=#ffffff;" parent="eGC-7imbVLmDfGmRkEiL-1" vertex="1">
          <mxGeometry x="200" y="320" width="120" height="60" as="geometry" />
        </mxCell>
        <mxCell id="igWD5oE9TLMEyOKMKO6o-4" value="&lt;span style=&quot;font-size: 14px&quot;&gt;Entero-Erostoma&lt;/span&gt;" style="rounded=1;whiteSpace=wrap;html=1;fontSize=12;glass=0;strokeWidth=1;shadow=0;strokeColor=#432D57;fontColor=#ffffff;fillColor=#000066;" parent="eGC-7imbVLmDfGmRkEiL-1" vertex="1">
          <mxGeometry x="320" y="320" width="120" height="60" as="geometry" />
        </mxCell>
        <mxCell id="igWD5oE9TLMEyOKMKO6o-5" value="&lt;span style=&quot;font-size: 14px&quot;&gt;Tracheostoma&lt;/span&gt;" style="rounded=1;whiteSpace=wrap;html=1;fontSize=12;glass=0;strokeWidth=1;shadow=0;strokeColor=#B09500;fontColor=#ffffff;fillColor=#e3c800;" parent="eGC-7imbVLmDfGmRkEiL-1" vertex="1">
          <mxGeometry x="440" y="320" width="120" height="60" as="geometry" />
        </mxCell>
        <mxCell id="igWD5oE9TLMEyOKMKO6o-6" value="&lt;span style=&quot;font-size: 14px&quot;&gt;ErnÃ¤hrung&lt;/span&gt;" style="rounded=1;whiteSpace=wrap;html=1;fontSize=12;glass=0;strokeWidth=1;shadow=0;strokeColor=#432D57;fontColor=#ffffff;fillColor=#000066;" parent="eGC-7imbVLmDfGmRkEiL-1" vertex="1">
          <mxGeometry x="560" y="320" width="120" height="60" as="geometry" />
        </mxCell>
        <mxCell id="igWD5oE9TLMEyOKMKO6o-7" value="&lt;span style=&quot;font-size: 14px&quot;&gt;Pflegehilfsmittle&lt;/span&gt;" style="rounded=1;whiteSpace=wrap;html=1;fontSize=12;glass=0;strokeWidth=1;shadow=0;strokeColor=#432D57;fontColor=#ffffff;fillColor=#76608a;" parent="eGC-7imbVLmDfGmRkEiL-1" vertex="1">
          <mxGeometry x="680" y="320" width="120" height="60" as="geometry" />
        </mxCell>
        <mxCell id="FElEtwHt-5h-c6LBpNm5-34" style="edgeStyle=orthogonalEdgeStyle;rounded=0;orthogonalLoop=1;jettySize=auto;html=1;exitX=0.5;exitY=1;exitDx=0;exitDy=0;entryX=0.5;entryY=0;entryDx=0;entryDy=0;strokeColor=#7EA6E0;" parent="eGC-7imbVLmDfGmRkEiL-1" source="FElEtwHt-5h-c6LBpNm5-35" target="FElEtwHt-5h-c6LBpNm5-37" edge="1">
          <mxGeometry relative="1" as="geometry" />
        </mxCell>
        <mxCell id="FElEtwHt-5h-c6LBpNm5-35" value="Mir Fragebogen" style="rounded=1;whiteSpace=wrap;html=1;fontSize=12;glass=0;strokeWidth=1;shadow=0;fillColor=#dae8fc;strokeColor=#6c8ebf;" parent="eGC-7imbVLmDfGmRkEiL-1" vertex="1">
          <mxGeometry x="-117" y="-11" width="120" height="40" as="geometry" />
        </mxCell>
        <mxCell id="FElEtwHt-5h-c6LBpNm5-36" value="" style="edgeStyle=orthogonalEdgeStyle;rounded=0;orthogonalLoop=1;jettySize=auto;html=1;strokeColor=#7EA6E0;" parent="eGC-7imbVLmDfGmRkEiL-1" source="FElEtwHt-5h-c6LBpNm5-37" target="FElEtwHt-5h-c6LBpNm5-39" edge="1">
          <mxGeometry relative="1" as="geometry" />
        </mxCell>
        <mxCell id="FElEtwHt-5h-c6LBpNm5-37" value="Inkontinenzform (5 questions)" style="rounded=1;whiteSpace=wrap;html=1;fontSize=12;glass=0;strokeWidth=1;shadow=0;fillColor=#e1d5e7;strokeColor=#9673a6;" parent="eGC-7imbVLmDfGmRkEiL-1" vertex="1">
          <mxGeometry x="-117" y="90" width="120" height="40" as="geometry" />
        </mxCell>
        <mxCell id="FElEtwHt-5h-c6LBpNm5-38" value="" style="edgeStyle=orthogonalEdgeStyle;rounded=0;orthogonalLoop=1;jettySize=auto;html=1;strokeColor=#7EA6E0;" parent="eGC-7imbVLmDfGmRkEiL-1" source="FElEtwHt-5h-c6LBpNm5-39" target="FElEtwHt-5h-c6LBpNm5-41" edge="1">
          <mxGeometry relative="1" as="geometry" />
        </mxCell>
        <mxCell id="FElEtwHt-5h-c6LBpNm5-39" value="Einflussfaktoren (3 questions)" style="rounded=1;whiteSpace=wrap;html=1;fontSize=12;glass=0;strokeWidth=1;shadow=0;fillColor=#e1d5e7;strokeColor=#9673a6;" parent="eGC-7imbVLmDfGmRkEiL-1" vertex="1">
          <mxGeometry x="-117" y="143" width="120" height="40" as="geometry" />
        </mxCell>
        <mxCell id="FElEtwHt-5h-c6LBpNm5-40" value="" style="edgeStyle=orthogonalEdgeStyle;rounded=0;orthogonalLoop=1;jettySize=auto;html=1;strokeColor=#7EA6E0;" parent="eGC-7imbVLmDfGmRkEiL-1" source="FElEtwHt-5h-c6LBpNm5-41" target="FElEtwHt-5h-c6LBpNm5-43" edge="1">
          <mxGeometry relative="1" as="geometry" />
        </mxCell>
        <mxCell id="FElEtwHt-5h-c6LBpNm5-41" value="Versorgungssituation (4 questions)" style="rounded=1;whiteSpace=wrap;html=1;fontSize=12;glass=0;strokeWidth=1;shadow=0;fillColor=#e1d5e7;strokeColor=#9673a6;" parent="eGC-7imbVLmDfGmRkEiL-1" vertex="1">
          <mxGeometry x="-117" y="197" width="120" height="40" as="geometry" />
        </mxCell>
        <mxCell id="FElEtwHt-5h-c6LBpNm5-42" style="edgeStyle=orthogonalEdgeStyle;rounded=0;orthogonalLoop=1;jettySize=auto;html=1;exitX=0.5;exitY=1;exitDx=0;exitDy=0;entryX=0.5;entryY=0;entryDx=0;entryDy=0;strokeColor=#7EA6E0;" parent="eGC-7imbVLmDfGmRkEiL-1" source="FElEtwHt-5h-c6LBpNm5-43" target="FElEtwHt-5h-c6LBpNm5-44" edge="1">
          <mxGeometry relative="1" as="geometry" />
        </mxCell>
        <mxCell id="FElEtwHt-5h-c6LBpNm5-43" value="WohlfÃ¼hlfaktoren" style="rounded=1;whiteSpace=wrap;html=1;fontSize=12;glass=0;strokeWidth=1;shadow=0;fillColor=#e1d5e7;strokeColor=#9673a6;" parent="eGC-7imbVLmDfGmRkEiL-1" vertex="1">
          <mxGeometry x="-117" y="250.5" width="120" height="40" as="geometry" />
        </mxCell>
        <mxCell id="FElEtwHt-5h-c6LBpNm5-44" value="Produktempfehlung" style="rounded=1;whiteSpace=wrap;html=1;fontSize=12;glass=0;strokeWidth=1;shadow=0;fillColor=#dae8fc;strokeColor=#6c8ebf;" parent="eGC-7imbVLmDfGmRkEiL-1" vertex="1">
          <mxGeometry x="-117" y="315" width="120" height="40" as="geometry" />
        </mxCell>
        <mxCell id="FElEtwHt-5h-c6LBpNm5-45" style="edgeStyle=orthogonalEdgeStyle;rounded=0;orthogonalLoop=1;jettySize=auto;html=1;exitX=0.5;exitY=1;exitDx=0;exitDy=0;entryX=0.5;entryY=0;entryDx=0;entryDy=0;strokeColor=#7EA6E0;" parent="eGC-7imbVLmDfGmRkEiL-1" source="FElEtwHt-5h-c6LBpNm5-47" target="FElEtwHt-5h-c6LBpNm5-35" edge="1">
          <mxGeometry relative="1" as="geometry" />
        </mxCell>
        <mxCell id="FElEtwHt-5h-c6LBpNm5-46" style="edgeStyle=orthogonalEdgeStyle;rounded=0;orthogonalLoop=1;jettySize=auto;html=1;exitX=0.5;exitY=1;exitDx=0;exitDy=0;entryX=0.5;entryY=0;entryDx=0;entryDy=0;strokeColor=#7EA6E0;" parent="eGC-7imbVLmDfGmRkEiL-1" source="FElEtwHt-5h-c6LBpNm5-47" target="FElEtwHt-5h-c6LBpNm5-49" edge="1">
          <mxGeometry relative="1" as="geometry" />
        </mxCell>
        <mxCell id="FElEtwHt-5h-c6LBpNm5-47" value="Zur Beratung (Anamnesis)" style="rounded=1;whiteSpace=wrap;html=1;fontSize=12;glass=0;strokeWidth=1;shadow=0;fillColor=#dae8fc;strokeColor=#6c8ebf;" parent="eGC-7imbVLmDfGmRkEiL-1" vertex="1">
          <mxGeometry x="-191" y="-120" width="120" height="40" as="geometry" />
        </mxCell>
        <mxCell id="FElEtwHt-5h-c6LBpNm5-48" value="" style="edgeStyle=orthogonalEdgeStyle;rounded=0;orthogonalLoop=1;jettySize=auto;html=1;fontSize=30;strokeColor=#7EA6E0;" parent="eGC-7imbVLmDfGmRkEiL-1" source="FElEtwHt-5h-c6LBpNm5-49" target="FElEtwHt-5h-c6LBpNm5-50" edge="1">
          <mxGeometry relative="1" as="geometry" />
        </mxCell>
        <mxCell id="FElEtwHt-5h-c6LBpNm5-49" value="Mit telefonischer Beratung" style="rounded=1;whiteSpace=wrap;html=1;fillColor=#dae8fc;strokeColor=#6c8ebf;" parent="eGC-7imbVLmDfGmRkEiL-1" vertex="1">
          <mxGeometry x="-270" y="-11" width="120" height="40" as="geometry" />
        </mxCell>
        <mxCell id="FElEtwHt-5h-c6LBpNm5-50" value="RÃ¼ckruf vereinbaren" style="rounded=1;whiteSpace=wrap;html=1;fillColor=#f8cecc;strokeColor=#b85450;" parent="eGC-7imbVLmDfGmRkEiL-1" vertex="1">
          <mxGeometry x="-270" y="268" width="120" height="40" as="geometry" />
        </mxCell>
        <mxCell id="yPYRE2AU3nrZUy1ea1C1-5" style="edgeStyle=orthogonalEdgeStyle;rounded=0;orthogonalLoop=1;jettySize=auto;html=1;exitX=0;exitY=0.5;exitDx=0;exitDy=0;" edge="1" parent="eGC-7imbVLmDfGmRkEiL-1" source="yPYRE2AU3nrZUy1ea1C1-0">
          <mxGeometry relative="1" as="geometry">
            <mxPoint x="-60" y="60" as="targetPoint" />
          </mxGeometry>
        </mxCell>
        <mxCell id="yPYRE2AU3nrZUy1ea1C1-0" value="Select Indikation type" style="rounded=1;whiteSpace=wrap;html=1;fontSize=12;glass=0;strokeWidth=1;shadow=0;fillColor=#dae8fc;strokeColor=#6c8ebf;" vertex="1" parent="eGC-7imbVLmDfGmRkEiL-1">
          <mxGeometry x="110" y="40" width="120" height="40" as="geometry" />
        </mxCell>
        <mxCell id="yPYRE2AU3nrZUy1ea1C1-2" value="" style="endArrow=classic;html=1;" edge="1" parent="eGC-7imbVLmDfGmRkEiL-1">
          <mxGeometry width="50" height="50" relative="1" as="geometry">
            <mxPoint x="60" y="360" as="sourcePoint" />
            <mxPoint x="110" y="310" as="targetPoint" />
          </mxGeometry>
        </mxCell>
      </root>
    </mxGraphModel>
  </diagram>
  <diagram id="FAaEgYGuQdnXMhheCkps" name="Basissystem">
    <mxGraphModel dx="1422" dy="762" grid="1" gridSize="10" guides="1" tooltips="1" connect="1" arrows="1" fold="1" page="1" pageScale="1" pageWidth="827" pageHeight="1169" math="0" shadow="0">
      <root>
        <mxCell id="qNl-RZC53vh0g1M46TtF-0" />
        <mxCell id="qNl-RZC53vh0g1M46TtF-1" parent="qNl-RZC53vh0g1M46TtF-0" />
      </root>
    </mxGraphModel>
  </diagram>
  <diagram id="ipIr2GVCkHbr-zqjcCSs" name="Multi-selling shop">
    <mxGraphModel dx="1422" dy="762" grid="1" gridSize="10" guides="1" tooltips="1" connect="1" arrows="1" fold="1" page="1" pageScale="1" pageWidth="827" pageHeight="1169" math="0" shadow="0">
      <root>
        <mxCell id="80S9tcLy0Y3b9v2HyaVs-0" />
        <mxCell id="80S9tcLy0Y3b9v2HyaVs-1" parent="80S9tcLy0Y3b9v2HyaVs-0" />
        <mxCell id="mu6PhUuSpG1Q6mtT619_-0" style="edgeStyle=orthogonalEdgeStyle;rounded=0;orthogonalLoop=1;jettySize=auto;html=1;exitX=0.5;exitY=0;exitDx=0;exitDy=0;entryX=0.5;entryY=1;entryDx=0;entryDy=0;startArrow=none;startFill=0;strokeColor=#7EA6E0;" parent="80S9tcLy0Y3b9v2HyaVs-1" source="mu6PhUuSpG1Q6mtT619_-2" target="mu6PhUuSpG1Q6mtT619_-13" edge="1">
          <mxGeometry relative="1" as="geometry" />
        </mxCell>
        <mxCell id="mu6PhUuSpG1Q6mtT619_-1" style="edgeStyle=orthogonalEdgeStyle;rounded=0;orthogonalLoop=1;jettySize=auto;html=1;exitX=1;exitY=0.5;exitDx=0;exitDy=0;entryX=0;entryY=0.5;entryDx=0;entryDy=0;strokeColor=#7EA6E0;" parent="80S9tcLy0Y3b9v2HyaVs-1" source="mu6PhUuSpG1Q6mtT619_-2" target="mu6PhUuSpG1Q6mtT619_-11" edge="1">
          <mxGeometry relative="1" as="geometry" />
        </mxCell>
        <mxCell id="mu6PhUuSpG1Q6mtT619_-2" value="Produktempfelung" style="rounded=1;whiteSpace=wrap;html=1;fontSize=12;glass=0;strokeWidth=1;shadow=0;fillColor=#dae8fc;strokeColor=#6c8ebf;" parent="80S9tcLy0Y3b9v2HyaVs-1" vertex="1">
          <mxGeometry x="80" y="390" width="120" height="40" as="geometry" />
        </mxCell>
        <mxCell id="mu6PhUuSpG1Q6mtT619_-3" style="edgeStyle=orthogonalEdgeStyle;rounded=0;orthogonalLoop=1;jettySize=auto;html=1;exitX=0.75;exitY=1;exitDx=0;exitDy=0;entryX=0;entryY=0.5;entryDx=0;entryDy=0;startArrow=none;startFill=0;strokeColor=#7EA6E0;" parent="80S9tcLy0Y3b9v2HyaVs-1" source="mu6PhUuSpG1Q6mtT619_-4" target="mu6PhUuSpG1Q6mtT619_-13" edge="1">
          <mxGeometry relative="1" as="geometry" />
        </mxCell>
        <mxCell id="mu6PhUuSpG1Q6mtT619_-4" value="Product finden" style="rounded=1;whiteSpace=wrap;html=1;fontSize=12;glass=0;strokeWidth=1;shadow=0;fillColor=#f8cecc;strokeColor=#b85450;" parent="80S9tcLy0Y3b9v2HyaVs-1" vertex="1">
          <mxGeometry x="90" y="240" width="120" height="40" as="geometry" />
        </mxCell>
        <mxCell id="mu6PhUuSpG1Q6mtT619_-5" value="Benutzerkonto anlegen" style="rounded=1;whiteSpace=wrap;html=1;fontSize=12;glass=0;strokeWidth=1;shadow=0;fillColor=#e1d5e7;strokeColor=#9673a6;" parent="80S9tcLy0Y3b9v2HyaVs-1" vertex="1">
          <mxGeometry x="591" y="240" width="120" height="40" as="geometry" />
        </mxCell>
        <mxCell id="mu6PhUuSpG1Q6mtT619_-6" style="edgeStyle=orthogonalEdgeStyle;rounded=0;orthogonalLoop=1;jettySize=auto;html=1;exitX=1;exitY=0.5;exitDx=0;exitDy=0;entryX=0;entryY=0.5;entryDx=0;entryDy=0;strokeColor=#7EA6E0;" parent="80S9tcLy0Y3b9v2HyaVs-1" source="mu6PhUuSpG1Q6mtT619_-7" target="mu6PhUuSpG1Q6mtT619_-5" edge="1">
          <mxGeometry relative="1" as="geometry" />
        </mxCell>
        <mxCell id="mu6PhUuSpG1Q6mtT619_-7" value="Produkt kaufen (Gastprodukt kaufen)" style="rounded=1;whiteSpace=wrap;html=1;fontSize=12;glass=0;strokeWidth=1;shadow=0;fillColor=#f8cecc;strokeColor=#b85450;" parent="80S9tcLy0Y3b9v2HyaVs-1" vertex="1">
          <mxGeometry x="431" y="240" width="120" height="40" as="geometry" />
        </mxCell>
        <mxCell id="mu6PhUuSpG1Q6mtT619_-8" value="&lt;span style=&quot;font-family: &amp;#34;calibri&amp;#34; , &amp;#34;segoe ui&amp;#34; , &amp;#34;calibri&amp;#34; , &amp;#34;thonburi&amp;#34; , &amp;#34;arial&amp;#34; , &amp;#34;verdana&amp;#34; , sans-serif , &amp;#34;mongolian baiti&amp;#34; , &amp;#34;microsoft yi baiti&amp;#34; , &amp;#34;javanese text&amp;#34; ; font-size: 14.6667px ; background-color: rgb(255 , 255 , 255)&quot;&gt;Segmentierungen werden als PrÃ¤ferenz gespeichert&lt;/span&gt;" style="rounded=1;whiteSpace=wrap;html=1;fontSize=12;glass=0;strokeWidth=1;shadow=0;fillColor=none;strokeColor=none;" parent="80S9tcLy0Y3b9v2HyaVs-1" vertex="1">
          <mxGeometry x="161" y="510" width="166" height="40" as="geometry" />
        </mxCell>
        <mxCell id="mu6PhUuSpG1Q6mtT619_-9" value="Versorgungsstatus Patient" style="rounded=1;whiteSpace=wrap;html=1;fontSize=12;glass=0;strokeWidth=1;shadow=0;fillColor=#fff2cc;strokeColor=#d6b656;" parent="80S9tcLy0Y3b9v2HyaVs-1" vertex="1">
          <mxGeometry x="591" y="318" width="120" height="40" as="geometry" />
        </mxCell>
        <mxCell id="mu6PhUuSpG1Q6mtT619_-10" style="edgeStyle=orthogonalEdgeStyle;rounded=0;orthogonalLoop=1;jettySize=auto;html=1;exitX=1;exitY=0.5;exitDx=0;exitDy=0;entryX=0.446;entryY=1.012;entryDx=0;entryDy=0;entryPerimeter=0;strokeColor=#7EA6E0;" parent="80S9tcLy0Y3b9v2HyaVs-1" source="mu6PhUuSpG1Q6mtT619_-11" target="mu6PhUuSpG1Q6mtT619_-7" edge="1">
          <mxGeometry relative="1" as="geometry" />
        </mxCell>
        <mxCell id="mu6PhUuSpG1Q6mtT619_-11" value="Muster Bestellen" style="rounded=1;whiteSpace=wrap;html=1;fontSize=12;glass=0;strokeWidth=1;shadow=0;fillColor=#dae8fc;strokeColor=#6c8ebf;" parent="80S9tcLy0Y3b9v2HyaVs-1" vertex="1">
          <mxGeometry x="251" y="390" width="120" height="40" as="geometry" />
        </mxCell>
        <mxCell id="mu6PhUuSpG1Q6mtT619_-12" style="edgeStyle=orthogonalEdgeStyle;rounded=0;orthogonalLoop=1;jettySize=auto;html=1;exitX=1;exitY=0.5;exitDx=0;exitDy=0;entryX=0;entryY=0.5;entryDx=0;entryDy=0;strokeColor=#7EA6E0;" parent="80S9tcLy0Y3b9v2HyaVs-1" source="mu6PhUuSpG1Q6mtT619_-13" target="mu6PhUuSpG1Q6mtT619_-7" edge="1">
          <mxGeometry relative="1" as="geometry" />
        </mxCell>
        <mxCell id="mu6PhUuSpG1Q6mtT619_-13" value="Private Pay Shop nutzen" style="rounded=1;whiteSpace=wrap;html=1;fontSize=12;glass=0;strokeWidth=1;shadow=0;fillColor=#dae8fc;strokeColor=#6c8ebf;" parent="80S9tcLy0Y3b9v2HyaVs-1" vertex="1">
          <mxGeometry x="251" y="310" width="120" height="40" as="geometry" />
        </mxCell>
        <mxCell id="mu6PhUuSpG1Q6mtT619_-14" style="edgeStyle=orthogonalEdgeStyle;rounded=0;orthogonalLoop=1;jettySize=auto;html=1;exitX=0;exitY=0;exitDx=0;exitDy=0;entryX=0.896;entryY=0.985;entryDx=0;entryDy=0;entryPerimeter=0;dashed=1;dashPattern=1 4;endArrow=none;endFill=0;strokeColor=#000000;" parent="80S9tcLy0Y3b9v2HyaVs-1" source="mu6PhUuSpG1Q6mtT619_-15" target="mu6PhUuSpG1Q6mtT619_-7" edge="1">
          <mxGeometry relative="1" as="geometry" />
        </mxCell>
        <mxCell id="mu6PhUuSpG1Q6mtT619_-15" value="&lt;span style=&quot;color: rgb(0 , 0 , 0) ; font-family: &amp;#34;helvetica&amp;#34; ; font-size: 12px ; font-style: normal ; font-weight: 400 ; letter-spacing: normal ; text-indent: 0px ; text-transform: none ; word-spacing: 0px ; background-color: rgb(248 , 249 , 250) ; display: inline ; float: none&quot;&gt;Add To Cart, add another product, change amount per product,&lt;/span&gt;&lt;br style=&quot;color: rgb(0 , 0 , 0) ; font-family: &amp;#34;helvetica&amp;#34; ; font-size: 12px ; font-style: normal ; font-weight: 400 ; letter-spacing: normal ; text-indent: 0px ; text-transform: none ; word-spacing: 0px ; background-color: rgb(248 , 249 , 250)&quot;&gt;&lt;span style=&quot;color: rgb(0 , 0 , 0) ; font-family: &amp;#34;helvetica&amp;#34; ; font-size: 12px ; font-style: normal ; font-weight: 400 ; letter-spacing: normal ; text-indent: 0px ; text-transform: none ; word-spacing: 0px ; background-color: rgb(248 , 249 , 250) ; display: inline ; float: none&quot;&gt;calculate prices per article/in total,&lt;/span&gt;" style="text;whiteSpace=wrap;html=1;align=center;strokeColor=#000000;dashed=1;dashPattern=1 4;" parent="80S9tcLy0Y3b9v2HyaVs-1" vertex="1">
          <mxGeometry x="528" y="520" width="109" height="102" as="geometry" />
        </mxCell>
      </root>
    </mxGraphModel>
  </diagram>
  <diagram id="pyhp-Z81Ag3vR5ndpVfy" name="Benutekonto">
    <mxGraphModel dx="782" dy="437" grid="1" gridSize="10" guides="1" tooltips="1" connect="1" arrows="1" fold="1" page="1" pageScale="1" pageWidth="827" pageHeight="1169" math="0" shadow="0">
      <root>
        <mxCell id="dvBnw_e5GKw13PEuX8YA-0" />
        <mxCell id="dvBnw_e5GKw13PEuX8YA-1" parent="dvBnw_e5GKw13PEuX8YA-0" />
      </root>
    </mxGraphModel>
  </diagram>
  <diagram id="tfIZL1ptCk485pgxuOkH" name="Extra features for future releases">
    <mxGraphModel dx="782" dy="437" grid="1" gridSize="10" guides="1" tooltips="1" connect="1" arrows="1" fold="1" page="1" pageScale="1" pageWidth="827" pageHeight="1169" math="0" shadow="0">
      <root>
        <mxCell id="74uX_UWbxRnGH7WUlIjh-0" />
        <mxCell id="74uX_UWbxRnGH7WUlIjh-1" parent="74uX_UWbxRnGH7WUlIjh-0" />
        <mxCell id="qqNJ29nKLIndo9SNw_iP-0" value="Validate prescription" style="rounded=1;whiteSpace=wrap;html=1;fontSize=12;glass=0;strokeWidth=1;shadow=0;fillColor=#fff2cc;strokeColor=#d6b656;" parent="74uX_UWbxRnGH7WUlIjh-1" vertex="1">
          <mxGeometry x="90" y="60" width="120" height="40" as="geometry" />
        </mxCell>
      </root>
    </mxGraphModel>
  </diagram>
  <diagram id="fQFBv1_caovgNFV-A3Xq" name="WIT">
    <mxGraphModel dx="920" dy="514" grid="1" gridSize="10" guides="1" tooltips="1" connect="1" arrows="1" fold="1" page="1" pageScale="1" pageWidth="827" pageHeight="1169" math="0" shadow="0">
      <root>
        <mxCell id="t4BoHv9QIkIiUjVWKSlF-0" />
        <mxCell id="t4BoHv9QIkIiUjVWKSlF-1" parent="t4BoHv9QIkIiUjVWKSlF-0" />
        <mxCell id="t4BoHv9QIkIiUjVWKSlF-2" value="Epic" style="rounded=0;whiteSpace=wrap;html=1;fillColor=#f0a30a;strokeColor=#BD7000;fontColor=#ffffff;" vertex="1" parent="t4BoHv9QIkIiUjVWKSlF-1">
          <mxGeometry x="40" y="160" width="800" height="60" as="geometry" />
        </mxCell>
        <mxCell id="t4BoHv9QIkIiUjVWKSlF-3" value="User story" style="rounded=0;whiteSpace=wrap;html=1;fillColor=#1ba1e2;strokeColor=#006EAF;fontColor=#ffffff;" vertex="1" parent="t4BoHv9QIkIiUjVWKSlF-1">
          <mxGeometry x="40" y="220" width="160" height="60" as="geometry" />
        </mxCell>
        <mxCell id="t4BoHv9QIkIiUjVWKSlF-4" value="&lt;span&gt;User story&lt;/span&gt;" style="rounded=0;whiteSpace=wrap;html=1;fillColor=#1ba1e2;strokeColor=#006EAF;fontColor=#ffffff;" vertex="1" parent="t4BoHv9QIkIiUjVWKSlF-1">
          <mxGeometry x="200" y="220" width="160" height="60" as="geometry" />
        </mxCell>
        <mxCell id="t4BoHv9QIkIiUjVWKSlF-5" value="&lt;span&gt;User story&lt;/span&gt;" style="rounded=0;whiteSpace=wrap;html=1;fillColor=#1ba1e2;strokeColor=#006EAF;fontColor=#ffffff;" vertex="1" parent="t4BoHv9QIkIiUjVWKSlF-1">
          <mxGeometry x="360" y="220" width="160" height="60" as="geometry" />
        </mxCell>
        <mxCell id="t4BoHv9QIkIiUjVWKSlF-6" value="&lt;span&gt;User story&lt;/span&gt;" style="rounded=0;whiteSpace=wrap;html=1;fillColor=#1ba1e2;strokeColor=#006EAF;fontColor=#ffffff;" vertex="1" parent="t4BoHv9QIkIiUjVWKSlF-1">
          <mxGeometry x="520" y="220" width="160" height="60" as="geometry" />
        </mxCell>
        <mxCell id="t4BoHv9QIkIiUjVWKSlF-7" value="&lt;span&gt;User story&lt;/span&gt;" style="rounded=0;whiteSpace=wrap;html=1;fillColor=#1ba1e2;strokeColor=#006EAF;fontColor=#ffffff;" vertex="1" parent="t4BoHv9QIkIiUjVWKSlF-1">
          <mxGeometry x="680" y="220" width="160" height="60" as="geometry" />
        </mxCell>
        <mxCell id="t4BoHv9QIkIiUjVWKSlF-8" value="Task" style="rounded=0;whiteSpace=wrap;html=1;fillColor=#60a917;strokeColor=#2D7600;fontColor=#ffffff;" vertex="1" parent="t4BoHv9QIkIiUjVWKSlF-1">
          <mxGeometry x="40" y="280" width="80" height="60" as="geometry" />
        </mxCell>
        <mxCell id="t4BoHv9QIkIiUjVWKSlF-9" value="&lt;span&gt;Task&lt;/span&gt;" style="rounded=0;whiteSpace=wrap;html=1;fillColor=#60a917;strokeColor=#2D7600;fontColor=#ffffff;" vertex="1" parent="t4BoHv9QIkIiUjVWKSlF-1">
          <mxGeometry x="120" y="280" width="80" height="60" as="geometry" />
        </mxCell>
        <mxCell id="t4BoHv9QIkIiUjVWKSlF-10" value="&lt;span&gt;Task&lt;/span&gt;" style="rounded=0;whiteSpace=wrap;html=1;fillColor=#60a917;strokeColor=#2D7600;fontColor=#ffffff;" vertex="1" parent="t4BoHv9QIkIiUjVWKSlF-1">
          <mxGeometry x="40" y="340" width="80" height="60" as="geometry" />
        </mxCell>
        <mxCell id="t4BoHv9QIkIiUjVWKSlF-11" value="&lt;span&gt;Task&lt;/span&gt;" style="rounded=0;whiteSpace=wrap;html=1;fillColor=#60a917;strokeColor=#2D7600;fontColor=#ffffff;" vertex="1" parent="t4BoHv9QIkIiUjVWKSlF-1">
          <mxGeometry x="120" y="340" width="80" height="60" as="geometry" />
        </mxCell>
        <mxCell id="t4BoHv9QIkIiUjVWKSlF-12" value="&lt;span&gt;Task&lt;/span&gt;" style="rounded=0;whiteSpace=wrap;html=1;fillColor=#60a917;strokeColor=#2D7600;fontColor=#ffffff;" vertex="1" parent="t4BoHv9QIkIiUjVWKSlF-1">
          <mxGeometry x="40" y="400" width="80" height="60" as="geometry" />
        </mxCell>
        <mxCell id="t4BoHv9QIkIiUjVWKSlF-13" value="&lt;span&gt;Task&lt;/span&gt;" style="rounded=0;whiteSpace=wrap;html=1;fillColor=#60a917;strokeColor=#2D7600;fontColor=#ffffff;" vertex="1" parent="t4BoHv9QIkIiUjVWKSlF-1">
          <mxGeometry x="120" y="400" width="80" height="60" as="geometry" />
        </mxCell>
        <mxCell id="t4BoHv9QIkIiUjVWKSlF-14" value="&lt;span&gt;Task&lt;/span&gt;" style="rounded=0;whiteSpace=wrap;html=1;fillColor=#60a917;strokeColor=#2D7600;fontColor=#ffffff;" vertex="1" parent="t4BoHv9QIkIiUjVWKSlF-1">
          <mxGeometry x="200" y="280" width="80" height="60" as="geometry" />
        </mxCell>
        <mxCell id="t4BoHv9QIkIiUjVWKSlF-16" value="&lt;span&gt;Task&lt;/span&gt;" style="rounded=0;whiteSpace=wrap;html=1;fillColor=#60a917;strokeColor=#2D7600;fontColor=#ffffff;" vertex="1" parent="t4BoHv9QIkIiUjVWKSlF-1">
          <mxGeometry x="200" y="340" width="80" height="60" as="geometry" />
        </mxCell>
        <mxCell id="t4BoHv9QIkIiUjVWKSlF-18" value="&lt;span&gt;Task&lt;/span&gt;" style="rounded=0;whiteSpace=wrap;html=1;fillColor=#60a917;strokeColor=#2D7600;fontColor=#ffffff;" vertex="1" parent="t4BoHv9QIkIiUjVWKSlF-1">
          <mxGeometry x="200" y="400" width="80" height="60" as="geometry" />
        </mxCell>
        <mxCell id="t4BoHv9QIkIiUjVWKSlF-39" value="Task" style="rounded=0;whiteSpace=wrap;html=1;fillColor=#60a917;strokeColor=#2D7600;fontColor=#ffffff;" vertex="1" parent="t4BoHv9QIkIiUjVWKSlF-1">
          <mxGeometry x="280" y="280" width="80" height="60" as="geometry" />
        </mxCell>
        <mxCell id="t4BoHv9QIkIiUjVWKSlF-40" value="&lt;span&gt;Task&lt;/span&gt;" style="rounded=0;whiteSpace=wrap;html=1;fillColor=#60a917;strokeColor=#2D7600;fontColor=#ffffff;" vertex="1" parent="t4BoHv9QIkIiUjVWKSlF-1">
          <mxGeometry x="360" y="280" width="80" height="60" as="geometry" />
        </mxCell>
        <mxCell id="t4BoHv9QIkIiUjVWKSlF-41" value="&lt;span&gt;Task&lt;/span&gt;" style="rounded=0;whiteSpace=wrap;html=1;fillColor=#60a917;strokeColor=#2D7600;fontColor=#ffffff;" vertex="1" parent="t4BoHv9QIkIiUjVWKSlF-1">
          <mxGeometry x="280" y="340" width="80" height="60" as="geometry" />
        </mxCell>
        <mxCell id="t4BoHv9QIkIiUjVWKSlF-42" value="&lt;span&gt;Task&lt;/span&gt;" style="rounded=0;whiteSpace=wrap;html=1;fillColor=#60a917;strokeColor=#2D7600;fontColor=#ffffff;" vertex="1" parent="t4BoHv9QIkIiUjVWKSlF-1">
          <mxGeometry x="360" y="340" width="80" height="60" as="geometry" />
        </mxCell>
        <mxCell id="t4BoHv9QIkIiUjVWKSlF-43" value="&lt;span&gt;Task&lt;/span&gt;" style="rounded=0;whiteSpace=wrap;html=1;fillColor=#60a917;strokeColor=#2D7600;fontColor=#ffffff;" vertex="1" parent="t4BoHv9QIkIiUjVWKSlF-1">
          <mxGeometry x="280" y="400" width="80" height="60" as="geometry" />
        </mxCell>
        <mxCell id="t4BoHv9QIkIiUjVWKSlF-44" value="&lt;span&gt;Task&lt;/span&gt;" style="rounded=0;whiteSpace=wrap;html=1;fillColor=#60a917;strokeColor=#2D7600;fontColor=#ffffff;" vertex="1" parent="t4BoHv9QIkIiUjVWKSlF-1">
          <mxGeometry x="360" y="400" width="80" height="60" as="geometry" />
        </mxCell>
        <mxCell id="t4BoHv9QIkIiUjVWKSlF-45" value="&lt;span&gt;Task&lt;/span&gt;" style="rounded=0;whiteSpace=wrap;html=1;fillColor=#60a917;strokeColor=#2D7600;fontColor=#ffffff;" vertex="1" parent="t4BoHv9QIkIiUjVWKSlF-1">
          <mxGeometry x="440" y="280" width="80" height="60" as="geometry" />
        </mxCell>
        <mxCell id="t4BoHv9QIkIiUjVWKSlF-46" value="&lt;span&gt;Task&lt;/span&gt;" style="rounded=0;whiteSpace=wrap;html=1;fillColor=#60a917;strokeColor=#2D7600;fontColor=#ffffff;" vertex="1" parent="t4BoHv9QIkIiUjVWKSlF-1">
          <mxGeometry x="440" y="340" width="80" height="60" as="geometry" />
        </mxCell>
        <mxCell id="t4BoHv9QIkIiUjVWKSlF-47" value="&lt;span&gt;Task&lt;/span&gt;" style="rounded=0;whiteSpace=wrap;html=1;fillColor=#60a917;strokeColor=#2D7600;fontColor=#ffffff;" vertex="1" parent="t4BoHv9QIkIiUjVWKSlF-1">
          <mxGeometry x="440" y="400" width="80" height="60" as="geometry" />
        </mxCell>
        <mxCell id="t4BoHv9QIkIiUjVWKSlF-48" value="Task" style="rounded=0;whiteSpace=wrap;html=1;fillColor=#60a917;strokeColor=#2D7600;fontColor=#ffffff;" vertex="1" parent="t4BoHv9QIkIiUjVWKSlF-1">
          <mxGeometry x="520" y="280" width="80" height="60" as="geometry" />
        </mxCell>
        <mxCell id="t4BoHv9QIkIiUjVWKSlF-49" value="&lt;span&gt;Task&lt;/span&gt;" style="rounded=0;whiteSpace=wrap;html=1;fillColor=#60a917;strokeColor=#2D7600;fontColor=#ffffff;" vertex="1" parent="t4BoHv9QIkIiUjVWKSlF-1">
          <mxGeometry x="600" y="280" width="80" height="60" as="geometry" />
        </mxCell>
        <mxCell id="t4BoHv9QIkIiUjVWKSlF-50" value="&lt;span&gt;Task&lt;/span&gt;" style="rounded=0;whiteSpace=wrap;html=1;fillColor=#60a917;strokeColor=#2D7600;fontColor=#ffffff;" vertex="1" parent="t4BoHv9QIkIiUjVWKSlF-1">
          <mxGeometry x="520" y="340" width="80" height="60" as="geometry" />
        </mxCell>
        <mxCell id="t4BoHv9QIkIiUjVWKSlF-51" value="&lt;span&gt;Task&lt;/span&gt;" style="rounded=0;whiteSpace=wrap;html=1;fillColor=#60a917;strokeColor=#2D7600;fontColor=#ffffff;" vertex="1" parent="t4BoHv9QIkIiUjVWKSlF-1">
          <mxGeometry x="600" y="340" width="80" height="60" as="geometry" />
        </mxCell>
        <mxCell id="t4BoHv9QIkIiUjVWKSlF-52" value="&lt;span&gt;Task&lt;/span&gt;" style="rounded=0;whiteSpace=wrap;html=1;fillColor=#60a917;strokeColor=#2D7600;fontColor=#ffffff;" vertex="1" parent="t4BoHv9QIkIiUjVWKSlF-1">
          <mxGeometry x="520" y="400" width="80" height="60" as="geometry" />
        </mxCell>
        <mxCell id="t4BoHv9QIkIiUjVWKSlF-53" value="&lt;span&gt;Task&lt;/span&gt;" style="rounded=0;whiteSpace=wrap;html=1;fillColor=#60a917;strokeColor=#2D7600;fontColor=#ffffff;" vertex="1" parent="t4BoHv9QIkIiUjVWKSlF-1">
          <mxGeometry x="600" y="400" width="80" height="60" as="geometry" />
        </mxCell>
        <mxCell id="t4BoHv9QIkIiUjVWKSlF-54" value="&lt;span&gt;Task&lt;/span&gt;" style="rounded=0;whiteSpace=wrap;html=1;fillColor=#60a917;strokeColor=#2D7600;fontColor=#ffffff;" vertex="1" parent="t4BoHv9QIkIiUjVWKSlF-1">
          <mxGeometry x="680" y="280" width="80" height="60" as="geometry" />
        </mxCell>
        <mxCell id="t4BoHv9QIkIiUjVWKSlF-55" value="&lt;span&gt;Task&lt;/span&gt;" style="rounded=0;whiteSpace=wrap;html=1;fillColor=#60a917;strokeColor=#2D7600;fontColor=#ffffff;" vertex="1" parent="t4BoHv9QIkIiUjVWKSlF-1">
          <mxGeometry x="680" y="340" width="80" height="60" as="geometry" />
        </mxCell>
        <mxCell id="t4BoHv9QIkIiUjVWKSlF-56" value="&lt;span&gt;Task&lt;/span&gt;" style="rounded=0;whiteSpace=wrap;html=1;fillColor=#60a917;strokeColor=#2D7600;fontColor=#ffffff;" vertex="1" parent="t4BoHv9QIkIiUjVWKSlF-1">
          <mxGeometry x="680" y="400" width="80" height="60" as="geometry" />
        </mxCell>
        <mxCell id="t4BoHv9QIkIiUjVWKSlF-57" value="&lt;span&gt;Task&lt;/span&gt;" style="rounded=0;whiteSpace=wrap;html=1;fillColor=#60a917;strokeColor=#2D7600;fontColor=#ffffff;" vertex="1" parent="t4BoHv9QIkIiUjVWKSlF-1">
          <mxGeometry x="760" y="280" width="80" height="60" as="geometry" />
        </mxCell>
        <mxCell id="t4BoHv9QIkIiUjVWKSlF-58" value="&lt;span&gt;Task&lt;/span&gt;" style="rounded=0;whiteSpace=wrap;html=1;fillColor=#60a917;strokeColor=#2D7600;fontColor=#ffffff;" vertex="1" parent="t4BoHv9QIkIiUjVWKSlF-1">
          <mxGeometry x="760" y="340" width="80" height="60" as="geometry" />
        </mxCell>
        <mxCell id="t4BoHv9QIkIiUjVWKSlF-59" value="&lt;span&gt;Task&lt;/span&gt;" style="rounded=0;whiteSpace=wrap;html=1;fillColor=#60a917;strokeColor=#2D7600;fontColor=#ffffff;" vertex="1" parent="t4BoHv9QIkIiUjVWKSlF-1">
          <mxGeometry x="760" y="400" width="80" height="60" as="geometry" />
        </mxCell>
        <mxCell id="t4BoHv9QIkIiUjVWKSlF-62" value="&lt;font color=&quot;#ffffff&quot;&gt;Theme&lt;/font&gt;" style="triangle;whiteSpace=wrap;html=1;direction=north;strokeColor=#666666;fontColor=#333333;fillColor=#E6D0DE;" vertex="1" parent="t4BoHv9QIkIiUjVWKSlF-1">
          <mxGeometry x="380" y="520" width="80" height="60" as="geometry" />
        </mxCell>
        <mxCell id="t4BoHv9QIkIiUjVWKSlF-63" value="&lt;font color=&quot;#ffffff&quot;&gt;Feature&lt;/font&gt;" style="triangle;whiteSpace=wrap;html=1;direction=north;fillColor=#000066;" vertex="1" parent="t4BoHv9QIkIiUjVWKSlF-1">
          <mxGeometry x="340" y="580" width="80" height="60" as="geometry" />
        </mxCell>
        <mxCell id="t4BoHv9QIkIiUjVWKSlF-64" value="&lt;span style=&quot;color: rgb(255 , 255 , 255)&quot;&gt;Feature&lt;/span&gt;" style="triangle;whiteSpace=wrap;html=1;direction=north;fillColor=#000066;" vertex="1" parent="t4BoHv9QIkIiUjVWKSlF-1">
          <mxGeometry x="420" y="580" width="80" height="60" as="geometry" />
        </mxCell>
        <mxCell id="t4BoHv9QIkIiUjVWKSlF-65" value="&lt;span style=&quot;color: rgb(255 , 255 , 255)&quot;&gt;Epic&lt;/span&gt;" style="triangle;whiteSpace=wrap;html=1;direction=north;fillColor=#CC6600;" vertex="1" parent="t4BoHv9QIkIiUjVWKSlF-1">
          <mxGeometry x="300" y="640" width="80" height="60" as="geometry" />
        </mxCell>
        <mxCell id="t4BoHv9QIkIiUjVWKSlF-66" value="&lt;span style=&quot;color: rgb(255 , 255 , 255)&quot;&gt;Epic&lt;/span&gt;" style="triangle;whiteSpace=wrap;html=1;direction=north;fillColor=#CC6600;" vertex="1" parent="t4BoHv9QIkIiUjVWKSlF-1">
          <mxGeometry x="460" y="640" width="80" height="60" as="geometry" />
        </mxCell>
        <mxCell id="t4BoHv9QIkIiUjVWKSlF-67" value="&lt;span style=&quot;color: rgb(255 , 255 , 255)&quot;&gt;User &lt;br&gt;story&lt;/span&gt;" style="triangle;whiteSpace=wrap;html=1;direction=north;fillColor=#3399FF;" vertex="1" parent="t4BoHv9QIkIiUjVWKSlF-1">
          <mxGeometry x="260" y="700" width="80" height="60" as="geometry" />
        </mxCell>
        <mxCell id="t4BoHv9QIkIiUjVWKSlF-68" value="&lt;span style=&quot;color: rgb(255 , 255 , 255)&quot;&gt;User&amp;nbsp;&lt;/span&gt;&lt;br style=&quot;color: rgb(255 , 255 , 255)&quot;&gt;&lt;span style=&quot;color: rgb(255 , 255 , 255)&quot;&gt;story&lt;/span&gt;" style="triangle;whiteSpace=wrap;html=1;direction=north;fillColor=#3399FF;" vertex="1" parent="t4BoHv9QIkIiUjVWKSlF-1">
          <mxGeometry x="500" y="700" width="80" height="60" as="geometry" />
        </mxCell>
        <mxCell id="t4BoHv9QIkIiUjVWKSlF-69" value="&lt;span style=&quot;color: rgb(255 , 255 , 255)&quot;&gt;Task&lt;/span&gt;" style="triangle;whiteSpace=wrap;html=1;direction=north;fillColor=#FFCC54;" vertex="1" parent="t4BoHv9QIkIiUjVWKSlF-1">
          <mxGeometry x="220" y="760" width="80" height="60" as="geometry" />
        </mxCell>
        <mxCell id="t4BoHv9QIkIiUjVWKSlF-70" value="&lt;span style=&quot;color: rgb(255 , 255 , 255)&quot;&gt;Task&lt;/span&gt;" style="triangle;whiteSpace=wrap;html=1;direction=north;fillColor=#FFCC54;" vertex="1" parent="t4BoHv9QIkIiUjVWKSlF-1">
          <mxGeometry x="540" y="760" width="80" height="60" as="geometry" />
        </mxCell>
        <mxCell id="t4BoHv9QIkIiUjVWKSlF-71" value="&lt;span style=&quot;color: rgb(255 , 255 , 255)&quot;&gt;Epic&lt;/span&gt;" style="triangle;whiteSpace=wrap;html=1;direction=north;fillColor=#CC6600;" vertex="1" parent="t4BoHv9QIkIiUjVWKSlF-1">
          <mxGeometry x="380" y="640" width="80" height="60" as="geometry" />
        </mxCell>
        <mxCell id="t4BoHv9QIkIiUjVWKSlF-72" value="&lt;span style=&quot;color: rgb(255 , 255 , 255)&quot;&gt;User &lt;br&gt;story&lt;/span&gt;" style="triangle;whiteSpace=wrap;html=1;direction=north;fillColor=#3399FF;" vertex="1" parent="t4BoHv9QIkIiUjVWKSlF-1">
          <mxGeometry x="340" y="700" width="80" height="60" as="geometry" />
        </mxCell>
        <mxCell id="t4BoHv9QIkIiUjVWKSlF-73" value="&lt;span style=&quot;color: rgb(255 , 255 , 255)&quot;&gt;User&amp;nbsp;&lt;/span&gt;&lt;br style=&quot;color: rgb(255 , 255 , 255)&quot;&gt;&lt;span style=&quot;color: rgb(255 , 255 , 255)&quot;&gt;story&lt;/span&gt;" style="triangle;whiteSpace=wrap;html=1;direction=north;fillColor=#3399FF;" vertex="1" parent="t4BoHv9QIkIiUjVWKSlF-1">
          <mxGeometry x="420" y="700" width="80" height="60" as="geometry" />
        </mxCell>
        <mxCell id="t4BoHv9QIkIiUjVWKSlF-74" value="&lt;span style=&quot;color: rgb(255 , 255 , 255)&quot;&gt;Task&lt;/span&gt;" style="triangle;whiteSpace=wrap;html=1;direction=north;fillColor=#FFCC54;" vertex="1" parent="t4BoHv9QIkIiUjVWKSlF-1">
          <mxGeometry x="300" y="760" width="80" height="60" as="geometry" />
        </mxCell>
        <mxCell id="t4BoHv9QIkIiUjVWKSlF-75" value="&lt;span style=&quot;color: rgb(255 , 255 , 255)&quot;&gt;Task&lt;/span&gt;" style="triangle;whiteSpace=wrap;html=1;direction=north;fillColor=#FFCC54;" vertex="1" parent="t4BoHv9QIkIiUjVWKSlF-1">
          <mxGeometry x="380" y="760" width="80" height="60" as="geometry" />
        </mxCell>
        <mxCell id="t4BoHv9QIkIiUjVWKSlF-76" value="&lt;span style=&quot;color: rgb(255 , 255 , 255)&quot;&gt;Task&lt;/span&gt;" style="triangle;whiteSpace=wrap;html=1;direction=north;fillColor=#FFCC54;" vertex="1" parent="t4BoHv9QIkIiUjVWKSlF-1">
          <mxGeometry x="460" y="760" width="80" height="60" as="geometry" />
        </mxCell>
        <mxCell id="t4BoHv9QIkIiUjVWKSlF-77" value="&lt;span style=&quot;color: rgb(255 , 255 , 255)&quot;&gt;Feature&lt;/span&gt;" style="triangle;whiteSpace=wrap;html=1;direction=south;fillColor=#000066;" vertex="1" parent="t4BoHv9QIkIiUjVWKSlF-1">
          <mxGeometry x="380" y="580" width="80" height="60" as="geometry" />
        </mxCell>
        <mxCell id="t4BoHv9QIkIiUjVWKSlF-79" value="&lt;span style=&quot;color: rgb(255 , 255 , 255)&quot;&gt;Epic&lt;/span&gt;" style="triangle;whiteSpace=wrap;html=1;direction=south;fillColor=#CC6600;" vertex="1" parent="t4BoHv9QIkIiUjVWKSlF-1">
          <mxGeometry x="340" y="640" width="80" height="60" as="geometry" />
        </mxCell>
        <mxCell id="t4BoHv9QIkIiUjVWKSlF-80" value="&lt;span style=&quot;color: rgb(255 , 255 , 255)&quot;&gt;Epic&lt;/span&gt;" style="triangle;whiteSpace=wrap;html=1;direction=south;fillColor=#CC6600;" vertex="1" parent="t4BoHv9QIkIiUjVWKSlF-1">
          <mxGeometry x="420" y="640" width="80" height="60" as="geometry" />
        </mxCell>
        <mxCell id="t4BoHv9QIkIiUjVWKSlF-81" value="&lt;span style=&quot;color: rgb(255 , 255 , 255)&quot;&gt;User &lt;br&gt;story&lt;/span&gt;" style="triangle;whiteSpace=wrap;html=1;direction=south;fillColor=#3399FF;" vertex="1" parent="t4BoHv9QIkIiUjVWKSlF-1">
          <mxGeometry x="300" y="700" width="80" height="60" as="geometry" />
        </mxCell>
        <mxCell id="t4BoHv9QIkIiUjVWKSlF-82" value="&lt;span style=&quot;color: rgb(255 , 255 , 255)&quot;&gt;User&amp;nbsp;&lt;/span&gt;&lt;br style=&quot;color: rgb(255 , 255 , 255)&quot;&gt;&lt;span style=&quot;color: rgb(255 , 255 , 255)&quot;&gt;story&lt;/span&gt;" style="triangle;whiteSpace=wrap;html=1;direction=south;fillColor=#3399FF;" vertex="1" parent="t4BoHv9QIkIiUjVWKSlF-1">
          <mxGeometry x="380" y="700" width="80" height="60" as="geometry" />
        </mxCell>
        <mxCell id="t4BoHv9QIkIiUjVWKSlF-83" value="&lt;span style=&quot;color: rgb(255 , 255 , 255)&quot;&gt;User&amp;nbsp;&lt;/span&gt;&lt;br style=&quot;color: rgb(255 , 255 , 255)&quot;&gt;&lt;span style=&quot;color: rgb(255 , 255 , 255)&quot;&gt;story&lt;/span&gt;" style="triangle;whiteSpace=wrap;html=1;direction=south;fillColor=#3399FF;" vertex="1" parent="t4BoHv9QIkIiUjVWKSlF-1">
          <mxGeometry x="460" y="700" width="80" height="60" as="geometry" />
        </mxCell>
        <mxCell id="t4BoHv9QIkIiUjVWKSlF-84" value="&lt;span style=&quot;color: rgb(255 , 255 , 255)&quot;&gt;Task&lt;/span&gt;" style="triangle;whiteSpace=wrap;html=1;direction=south;fillColor=#FFCC54;" vertex="1" parent="t4BoHv9QIkIiUjVWKSlF-1">
          <mxGeometry x="260" y="760" width="80" height="60" as="geometry" />
        </mxCell>
        <mxCell id="t4BoHv9QIkIiUjVWKSlF-85" value="&lt;span style=&quot;color: rgb(255 , 255 , 255)&quot;&gt;Task&lt;/span&gt;" style="triangle;whiteSpace=wrap;html=1;direction=south;fillColor=#FFCC54;" vertex="1" parent="t4BoHv9QIkIiUjVWKSlF-1">
          <mxGeometry x="340" y="760" width="80" height="60" as="geometry" />
        </mxCell>
        <mxCell id="t4BoHv9QIkIiUjVWKSlF-86" value="&lt;span style=&quot;color: rgb(255 , 255 , 255)&quot;&gt;Task&lt;/span&gt;" style="triangle;whiteSpace=wrap;html=1;direction=south;fillColor=#FFCC54;" vertex="1" parent="t4BoHv9QIkIiUjVWKSlF-1">
          <mxGeometry x="420" y="760" width="80" height="60" as="geometry" />
        </mxCell>
        <mxCell id="t4BoHv9QIkIiUjVWKSlF-87" value="&lt;span style=&quot;color: rgb(255 , 255 , 255)&quot;&gt;Task&lt;/span&gt;" style="triangle;whiteSpace=wrap;html=1;direction=south;fillColor=#FFCC54;" vertex="1" parent="t4BoHv9QIkIiUjVWKSlF-1">
          <mxGeometry x="500" y="760" width="80" height="60" as="geometry" />
        </mxCell>
        <mxCell id="t4BoHv9QIkIiUjVWKSlF-88" value="" style="shape=image;verticalLabelPosition=bottom;labelBackgroundColor=#ffffff;verticalAlign=top;aspect=fixed;imageAspect=0;image=data:image/png,iVBORw0KGgoAAAANSUhEUgAAABcAAAAhCAYAAAAyCTAQAAAA80lEQVRIDe1UTQvCMAzt//9nogcFwYuiJyd1YyuOOrexyOuhy2r3oWwX6YOypEleuxcaQQtCLMhNgdyr7h/LIrWmnZRmwf4GvbJkRUH7OKZVFHUW9hCbgg/yV13TMU1pfbt1SPkhiCEHuUOw5HXT0EUp2gyQ8gNgIxc1qPXBkEPLrZS9N3VJXR+1vn4In65u8VTf7YeVxfdbv+w9q8qWiUdZ0lkpOmWZ+cLnuOa5iSEOm2OsVty1tk1Eg+BzHJLE9gI2x1htIDfSupIGWYIs7TMafURt6vyWwMyYc/H5I6aO06l5fP7MPnK5uIGcq2HtRWV5A63PerQM7auLAAAAAElFTkSuQmCC;labelBorderColor=none;" vertex="1" parent="t4BoHv9QIkIiUjVWKSlF-1">
          <mxGeometry x="330" y="519.15" width="43" height="61.7" as="geometry" />
        </mxCell>
        <mxCell id="t4BoHv9QIkIiUjVWKSlF-91" value="" style="shape=image;verticalLabelPosition=bottom;labelBackgroundColor=#ffffff;verticalAlign=top;aspect=fixed;imageAspect=0;image=data:image/png,iVBORw0KGgoAAAANSUhEUgAAABgAAAAcCAYAAAB75n/uAAABo0lEQVRIDe2VvUsDQRDF8/dYKCKIjY0IioWdoCCImMIioDaCoIKFqBFBsVHLEKLiVycJFkaLWCW2oqYUQXNRTiIG4z15Byd75+3txhDSOHCwzM57v93ZZS+EOkeozv74Byg7LG1RufyJbO4emasbrY+11HhDCii+vGFweBVNLRGtj7XUeMMFqNZUBhdhvoDo2jFSZ9fo61/QWj1BrKWGWiXg6CRjb/cvLaK2cQDTfEd4fBNbO0kYxeoPmRpq6UEvhusMLMtCPJFGR+c0dvcvMTC0on0GrKWGWnrQ6xeAiVLpA4vLB9rG3ptELT2ccO3ASZKezz8iMrmtDWItNc7KHS9fgDOZTOXQ3DahhLCGtX4RCOBWZ2ZjSgBrxLaIoEAACw3DDGwVW8MaWSgBFPIRO01mMRresFvGlnDMnN8DJ8K0ABQUCiaWoof2NeRV5Jg5VWgBnp5fMTK2jq6eOduY5hwzx7mg0AIk9i7Q3TuP27uHHy+OmeNcUEgBlcoXYvFztLZPKW8Ra1hLjTekgGr/DeILKkIaBxBXUctYuoNaTEVt3QHf+UalR8etEgsAAAAASUVORK5CYII=;" vertex="1" parent="t4BoHv9QIkIiUjVWKSlF-1">
          <mxGeometry x="280" y="580" width="51.43" height="60" as="geometry" />
        </mxCell>
        <mxCell id="t4BoHv9QIkIiUjVWKSlF-92" value="" style="shape=image;verticalLabelPosition=bottom;labelBackgroundColor=#ffffff;verticalAlign=top;aspect=fixed;imageAspect=0;image=data:image/png,iVBORw0KGgoAAAANSUhEUgAAAB0AAAAjCAYAAABo4wHSAAABaUlEQVRYCe2UvUoDURCFI6JvIAgi4guI72EhPoGlrQ/gTyGiolhEbOzE2IiFhb1aCIJNwMZCTCtIbAQRgnxyWIa7WWYh2V3Zwjsw3NndmfNlTrJpUEM0amASoX/qerQ32luJA8V+SD89aJ/D0wWoHjKKQW+2YH00SdVDhg/dnQJl586Xuz8MUNVeaDZHx4eujYDyetWTSyy9WgFlnr2azdHxofqE2xPweutDv7pwNJ+kai80Kw3HMR/afYG9aXg88eTg4Rg2xpJU7YVmpSGtTORDdyZhfwben/tHbEuzThtnt9WMZqUxNFTCrSXofQewbWlQbZzeVr2a0fPC0M1xaLcSaHZLA6e3Va9mSkE1fDALH53wXRrMTttWPeq1+4U3NYHTBWjOBUG7b6eeqceudZaGpsUGrSM0vAupSu+WrBnUxry+aG/K1FDWYu/nG1wuw9liuZSGtDLh/+Fnmqq+jNCqHe3T+z/2/gJhC3BJT6euOAAAAABJRU5ErkJggg==;" vertex="1" parent="t4BoHv9QIkIiUjVWKSlF-1">
          <mxGeometry x="251" y="640" width="49.71" height="60" as="geometry" />
        </mxCell>
        <mxCell id="t4BoHv9QIkIiUjVWKSlF-93" value="" style="shape=image;verticalLabelPosition=bottom;labelBackgroundColor=#ffffff;verticalAlign=top;aspect=fixed;imageAspect=0;image=data:image/png,iVBORw0KGgoAAAANSUhEUgAAABgAAAAaCAYAAACtv5zzAAABC0lEQVRIDe1Vy4rCQBDMp6sIIosXBa/+gV+wur714kUU8aCrBxNfGEnA+IgpqUDGkEzwJCzLNDRpeqa7mCJdreHDpn24PxTAW4b/EUWzvYOfuSW8ubCwNK/wvBcLjJnjWXViojI8+N5d2a9LkUhQVB0fkfpex7zQ3mBxvGC6c/DVMmLnrGFtkmn5pgHduvmXZADZuo7R5oz2ry1tHgCwB3tFwRSATxtpURSpv0gN2l+Yg7BcB1Jc6m+RaxhC7DJ1HcwFMh18KddvJzlJbu8PD/TL3cPVDS2HSEEigEyimUvX1ij2thgZZ9GKcXmwA1+SVBeT6/AWk8XcA6bj4uS46CxtsfFkd5kj1WF7Arasw3UNoz1FAAAAAElFTkSuQmCC;" vertex="1" parent="t4BoHv9QIkIiUjVWKSlF-1">
          <mxGeometry x="212.31" y="690" width="55.38" height="60" as="geometry" />
        </mxCell>
        <mxCell id="t4BoHv9QIkIiUjVWKSlF-94" value="" style="shape=image;verticalLabelPosition=bottom;labelBackgroundColor=#ffffff;verticalAlign=top;aspect=fixed;imageAspect=0;image=data:image/png,iVBORw0KGgoAAAANSUhEUgAAAB8AAAAfCAYAAAAfrhY5AAABEklEQVRYCe2WzwqCQBDGfRIp6dqjdOgZOvYGXTr1KkHP4tKxDhG0dPRmaKLgxG4trP+2XXfEiBVEUJjfzPd9o3ow4uGNyAYHH0V9J/vvyR6HPmCe6WVVGVLpOSaY1XJwof2/yT6BmExbgyp7TilVv9uNA0cCSK9ryKM9PI7zRgMynEmPJ/sHDGXBLc2jQ6OBYeA1MKNndAsxCSrT48M1wfZ7TgJ43jaQnBbviQzAdnAyg+y+436WRQTJecnDJTzukloObW/ZWXpZiLqONo9lsN3koc/T29aADtgazgrUFdAFo8DlBkzAaHBWiO9wbY/5fcU/QO/AfSus89zBxbrifVgUXgtLjGQXHQ51VU4+FFTUfQG+SzVZgka8kgAAAABJRU5ErkJggg==;" vertex="1" parent="t4BoHv9QIkIiUjVWKSlF-1">
          <mxGeometry x="150" y="750" width="60" height="60" as="geometry" />
        </mxCell>
      </root>
    </mxGraphModel>
  </diagram>
</mxfile>
